  0
SECTION
  2
HEADER
  9
$ACADVER
  1
AC1015
  9
$ACADMAINTVER
 70
     6
  9
$DWGCODEPAGE
  3
ANSI_1252
  9
$INSBASE
 10
0.0
 20
0.0
 30
0.0
  9
$EXTMIN
 10
-34.1518122913
 20
-41.2895329983
 30
0.0
  9
$EXTMAX
 10
87.3719547686
 20
46.1481460943
 30
0.0
  9
$LIMMIN
 10
0.0
 20
0.0
  9
$LIMMAX
 10
420.0
 20
297.0
  9
$ORTHOMODE
 70
     0
  9
$REGENMODE
 70
     1
  9
$FILLMODE
 70
     1
  9
$QTEXTMODE
 70
     0
  9
$MIRRTEXT
 70
     1
  9
$LTSCALE
 40
1.0
  9
$ATTMODE
 70
     1
  9
$TEXTSIZE
 40
3.175
  9
$TRACEWID
 40
1.0
  9
$TEXTSTYLE
  7
Standard
  9
$CLAYER
  8
0
  9
$CELTYPE
  6
ByLayer
  9
$CECOLOR
 62
   256
  9
$CELTSCALE
 40
1.0
  9
$DISPSILH
 70
     0
  9
$DIMSCALE
 40
1.0
  9
$DIMASZ
 40
3.302
  9
$DIMEXO
 40
0.0
  9
$DIMDLI
 40
3.75
  9
$DIMRND
 40
0.0
  9
$DIMDLE
 40
0.0
  9
$DIMEXE
 40
3.175
  9
$DIMTP
 40
0.0
  9
$DIMTM
 40
0.0
  9
$DIMTXT
 40
3.175
  9
$DIMCEN
 40
2.5
  9
$DIMTSZ
 40
0.0
  9
$DIMTOL
 70
     0
  9
$DIMLIM
 70
     0
  9
$DIMTIH
 70
     1
  9
$DIMTOH
 70
     1
  9
$DIMSE1
 70
     0
  9
$DIMSE2
 70
     0
  9
$DIMTAD
 70
     0
  9
$DIMZIN
 70
     1
  9
$DIMBLK
  1

  9
$DIMASO
 70
     1
  9
$DIMSHO
 70
     1
  9
$DIMPOST
  1

  9
$DIMAPOST
  1

  9
$DIMALT
 70
     0
  9
$DIMALTD
 70
     3
  9
$DIMALTF
 40
0.0393700787
  9
$DIMLFAC
 40
1.0
  9
$DIMTOFL
 70
     1
  9
$DIMTVP
 40
0.0
  9
$DIMTIX
 70
     0
  9
$DIMSOXD
 70
     0
  9
$DIMSAH
 70
     0
  9
$DIMBLK1
  1

  9
$DIMBLK2
  1

  9
$DIMSTYLE
  2
ISO-25
  9
$DIMCLRD
 70
     0
  9
$DIMCLRE
 70
     0
  9
$DIMCLRT
 70
     0
  9
$DIMTFAC
 40
1.0
  9
$DIMGAP
 40
1.524
  9
$DIMJUST
 70
     0
  9
$DIMSD1
 70
     0
  9
$DIMSD2
 70
     0
  9
$DIMTOLJ
 70
     0
  9
$DIMTZIN
 70
     1
  9
$DIMALTZ
 70
     0
  9
$DIMALTTZ
 70
     0
  9
$DIMUPT
 70
     0
  9
$DIMDEC
 70
     2
  9
$DIMTDEC
 70
     2
  9
$DIMALTU
 70
     2
  9
$DIMALTTD
 70
     3
  9
$DIMTXSTY
  7
Standard
  9
$DIMAUNIT
 70
     0
  9
$DIMADEC
 70
     2
  9
$DIMALTRND
 40
0.0
  9
$DIMAZIN
 70
     0
  9
$DIMDSEP
 70
    44
  9
$DIMATFIT
 70
     3
  9
$DIMFRAC
 70
     0
  9
$DIMLDRBLK
  1

  9
$DIMLUNIT
 70
     2
  9
$DIMLWD
 70
    -2
  9
$DIMLWE
 70
    -2
  9
$DIMTMOVE
 70
     0
  9
$LUNITS
 70
     2
  9
$LUPREC
 70
     5
  9
$SKETCHINC
 40
1.0
  9
$FILLETRAD
 40
10.0
  9
$AUNITS
 70
     0
  9
$AUPREC
 70
     2
  9
$MENU
  1
.
  9
$ELEVATION
 40
0.0
  9
$PELEVATION
 40
0.0
  9
$THICKNESS
 40
0.0
  9
$LIMCHECK
 70
     0
  9
$CHAMFERA
 40
0.0
  9
$CHAMFERB
 40
0.0
  9
$CHAMFERC
 40
0.0
  9
$CHAMFERD
 40
0.0
  9
$SKPOLY
 70
     0
  9
$TDCREATE
 40
2460131.492234514
  9
$TDUCREATE
 40
2460131.658901181
  9
$TDUPDATE
 40
2460131.492319386
  9
$TDUUPDATE
 40
2460131.658986053
  9
$TDINDWG
 40
0.0000000116
  9
$TDUSRTIMER
 40
0.0000000116
  9
$USRTIMER
 70
     1
  9
$ANGBASE
 50
0.0
  9
$ANGDIR
 70
     0
  9
$PDMODE
 70
     0
  9
$PDSIZE
 40
-1.0
  9
$PLINEWID
 40
0.0
  9
$SPLFRAME
 70
     0
  9
$SPLINETYPE
 70
     6
  9
$SPLINESEGS
 70
     8
  9
$HANDSEED
  5
AF
  9
$SURFTAB1
 70
     6
  9
$SURFTAB2
 70
     6
  9
$SURFTYPE
 70
     6
  9
$SURFU
 70
     6
  9
$SURFV
 70
     6
  9
$UCSBASE
  2

  9
$UCSNAME
  2

  9
$UCSORG
 10
0.0
 20
0.0
 30
0.0
  9
$UCSXDIR
 10
1.0
 20
0.0
 30
0.0
  9
$UCSYDIR
 10
0.0
 20
1.0
 30
0.0
  9
$UCSORTHOREF
  2

  9
$UCSORTHOVIEW
 70
     0
  9
$UCSORGTOP
 10
0.0
 20
0.0
 30
0.0
  9
$UCSORGBOTTOM
 10
0.0
 20
0.0
 30
0.0
  9
$UCSORGLEFT
 10
0.0
 20
0.0
 30
0.0
  9
$UCSORGRIGHT
 10
0.0
 20
0.0
 30
0.0
  9
$UCSORGFRONT
 10
0.0
 20
0.0
 30
0.0
  9
$UCSORGBACK
 10
0.0
 20
0.0
 30
0.0
  9
$PUCSBASE
  2

  9
$PUCSNAME
  2

  9
$PUCSORG
 10
0.0
 20
0.0
 30
0.0
  9
$PUCSXDIR
 10
1.0
 20
0.0
 30
0.0
  9
$PUCSYDIR
 10
0.0
 20
1.0
 30
0.0
  9
$PUCSORTHOREF
  2

  9
$PUCSORTHOVIEW
 70
     0
  9
$PUCSORGTOP
 10
0.0
 20
0.0
 30
0.0
  9
$PUCSORGBOTTOM
 10
0.0
 20
0.0
 30
0.0
  9
$PUCSORGLEFT
 10
0.0
 20
0.0
 30
0.0
  9
$PUCSORGRIGHT
 10
0.0
 20
0.0
 30
0.0
  9
$PUCSORGFRONT
 10
0.0
 20
0.0
 30
0.0
  9
$PUCSORGBACK
 10
0.0
 20
0.0
 30
0.0
  9
$USERI1
 70
     0
  9
$USERI2
 70
     0
  9
$USERI3
 70
     0
  9
$USERI4
 70
     0
  9
$USERI5
 70
     0
  9
$USERR1
 40
0.0
  9
$USERR2
 40
0.0
  9
$USERR3
 40
0.0
  9
$USERR4
 40
0.0
  9
$USERR5
 40
0.0
  9
$WORLDVIEW
 70
     1
  9
$SHADEDGE
 70
     3
  9
$SHADEDIF
 70
    70
  9
$TILEMODE
 70
     1
  9
$MAXACTVP
 70
    64
  9
$PINSBASE
 10
0.0
 20
0.0
 30
0.0
  9
$PLIMCHECK
 70
     0
  9
$PEXTMIN
 10
1.0000000000E+20
 20
1.0000000000E+20
 30
1.0000000000E+20
  9
$PEXTMAX
 10
-1.0000000000E+20
 20
-1.0000000000E+20
 30
-1.0000000000E+20
  9
$PLIMMIN
 10
0.0
 20
0.0
  9
$PLIMMAX
 10
420.0
 20
297.0
  9
$UNITMODE
 70
     0
  9
$VISRETAIN
 70
     1
  9
$PLINEGEN
 70
     0
  9
$PSLTSCALE
 70
     1
  9
$TREEDEPTH
 70
  3020
  9
$CMLSTYLE
  2
Standard
  9
$CMLJUST
 70
     0
  9
$CMLSCALE
 40
20.0
  9
$PROXYGRAPHICS
 70
     1
  9
$MEASUREMENT
 70
     1
  9
$CELWEIGHT
370
    -1
  9
$ENDCAPS
280
     0
  9
$JOINSTYLE
280
     0
  9
$LWDISPLAY
290
     1
  9
$INSUNITS
 70
     4
  9
$HYPERLINKBASE
  1

  9
$STYLESHEET
  1

  9
$XEDIT
290
     1
  9
$CEPSNTYPE
380
     0
  9
$PSTYLEMODE
290
     1
  9
$FINGERPRINTGUID
  2
{5e7dcd20-7c83-4708-b985-7a6e075bfb7e}
  9
$VERSIONGUID
  2
{FAEB1C32-E019-11D5-929B-00C0DF256EC4}
  9
$EXTNAMES
290
     1
  9
$PSVPSCALE
 40
0.0
  9
$OLESTARTUP
290
     0
  0
ENDSEC
  0
SECTION
  2
CLASSES
  0
CLASS
  1
ACDBDICTIONARYWDFLT
  2
AcDbDictionaryWithDefault
  3
ObjectDBX Classes
 90
        0
280
     0
281
     0
  0
CLASS
  1
VISUALSTYLE
  2
AcDbVisualStyle
  3
ObjectDBX Classes
 90
     4095
280
     0
281
     0
  0
CLASS
  1
MATERIAL
  2
AcDbMaterial
  3
ObjectDBX Classes
 90
     1153
280
     0
281
     0
  0
CLASS
  1
SCALE
  2
AcDbScale
  3
ObjectDBX Classes
 90
     1153
280
     0
281
     0
  0
CLASS
  1
TABLESTYLE
  2
AcDbTableStyle
  3
ObjectDBX Classes
 90
     4095
280
     0
281
     0
  0
CLASS
  1
MLEADERSTYLE
  2
AcDbMLeaderStyle
  3
ACDB_MLEADERSTYLE_CLASS
 90
     4095
280
     0
281
     0
  0
CLASS
  1
SUN
  2
AcDbSun
  3
SCENEOE
 90
     1153
280
     0
281
     0
  0
CLASS
  1
ACDBPLACEHOLDER
  2
AcDbPlaceHolder
  3
ObjectDBX Classes
 90
        0
280
     0
281
     0
  0
CLASS
  1
LAYOUT
  2
AcDbLayout
  3
ObjectDBX Classes
 90
        0
280
     0
281
     0
  0
ENDSEC
  0
SECTION
  2
TABLES
  0
TABLE
  2
VPORT
  5
8
330
0
100
AcDbSymbolTable
 70
     1
  0
VPORT
  5
29
330
8
100
AcDbSymbolTableRecord
100
AcDbViewportTableRecord
  2
*Active
 70
     0
 10
0.0
 20
0.0
 11
1.0
 21
1.0
 12
26.6100712387
 22
2.429306548
 13
0.0
 23
0.0
 14
10.0
 24
10.0
 15
10.0
 25
10.0
 16
0.0
 26
0.0
 36
1.0
 17
0.0
 27
0.0
 37
0.0
 40
89.1864326744
 41
1.3898329453
 42
50.0
 43
0.0
 44
0.0
 50
0.0
 51
0.0
 71
     0
 72
   100
 73
     1
 74
     3
 75
     0
 76
     0
 77
     0
 78
     0
281
     0
 65
     1
110
0.0
120
0.0
130
0.0
111
1.0
121
0.0
131
0.0
112
0.0
122
1.0
132
0.0
 79
     0
146
0.0
  0
ENDTAB
  0
TABLE
  2
LTYPE
  5
5
330
0
100
AcDbSymbolTable
 70
     6
  0
LTYPE
  5
14
330
5
100
AcDbSymbolTableRecord
100
AcDbLinetypeTableRecord
  2
ByBlock
 70
     0
  3

 72
    65
 73
     0
 40
0.0
  0
LTYPE
  5
15
330
5
100
AcDbSymbolTableRecord
100
AcDbLinetypeTableRecord
  2
ByLayer
 70
     0
  3

 72
    65
 73
     0
 40
0.0
  0
LTYPE
  5
16
330
5
100
AcDbSymbolTableRecord
100
AcDbLinetypeTableRecord
  2
Continuous
 70
     0
  3
Solid line
 72
    65
 73
     0
 40
0.0
  0
LTYPE
  5
6E
330
5
100
AcDbSymbolTableRecord
100
AcDbLinetypeTableRecord
  2
HIDDEN
 70
     0
  3
Hidden __ __ __ __ __ __ __ __ __ __ __ __ __ __
 72
    65
 73
     2
 40
1.905
 49
1.27
 74
     0
 49
-0.635
 74
     0
  0
LTYPE
  5
6F
330
5
100
AcDbSymbolTableRecord
100
AcDbLinetypeTableRecord
  2
PHANTOM
 70
     0
  3
Phantom ______  __  __  ______  __  __  ______
 72
    65
 73
     6
 40
12.7
 49
6.35
 74
     0
 49
-1.27
 74
     0
 49
1.27
 74
     0
 49
-1.27
 74
     0
 49
1.27
 74
     0
 49
-1.27
 74
     0
  0
LTYPE
  5
70
330
5
100
AcDbSymbolTableRecord
100
AcDbLinetypeTableRecord
  2
CENTER
 70
     0
  3
Center ____ _ ____ _ ____ _ ____ _ ____ _ ____
 72
    65
 73
     4
 40
10.16
 49
6.35
 74
     0
 49
-1.27
 74
     0
 49
1.27
 74
     0
 49
-1.27
 74
     0
  0
LTYPE
  5
71
330
5
100
AcDbSymbolTableRecord
100
AcDbLinetypeTableRecord
  2
CENTERX2
 70
     0
  3
Center (2x) ________  __  ________  __  _____
 72
    65
 73
     4
 40
20.32
 49
12.7
 74
     0
 49
-2.54
 74
     0
 49
2.54
 74
     0
 49
-2.54
 74
     0
  0
LTYPE
  5
72
330
5
100
AcDbSymbolTableRecord
100
AcDbLinetypeTableRecord
  2
DOT2
 70
     0
  3
Dot (.5x) ........................................
 72
    65
 73
     2
 40
0.635
 49
0.0
 74
     0
 49
-0.635
 74
     0
  0
ENDTAB
  0
TABLE
  2
LAYER
  5
2
330
0
100
AcDbSymbolTable
 70
     1
  0
LAYER
  5
10
330
2
100
AcDbSymbolTableRecord
100
AcDbLayerTableRecord
  2
0
 70
     0
 62
     7
  6
Continuous
370
    -3
390
F
  0
ENDTAB
  0
TABLE
  2
STYLE
  5
3
330
0
100
AcDbSymbolTable
 70
     2
  0
STYLE
  5
11
330
3
100
AcDbSymbolTableRecord
100
AcDbTextStyleTableRecord
  2
Standard
 70
     0
 40
0.0
 41
1.0
 50
0.0
 71
     0
 42
3.175
  3
txt
  4

  0
STYLE
  5
AB
330
3
100
AcDbSymbolTableRecord
100
AcDbTextStyleTableRecord
  2
SLDTEXTSTYLE0
 70
     0
 40
0.0
 41
0.7
 50
0.0
 71
     0
 42
3.175
  3
TXT
  4

  0
ENDTAB
  0
TABLE
  2
VIEW
  5
6
330
0
100
AcDbSymbolTable
 70
     0
  0
ENDTAB
  0
TABLE
  2
UCS
  5
7
330
0
100
AcDbSymbolTable
 70
     0
  0
ENDTAB
  0
TABLE
  2
APPID
  5
9
330
0
100
AcDbSymbolTable
 70
     1
  0
APPID
  5
12
330
9
100
AcDbSymbolTableRecord
100
AcDbRegAppTableRecord
  2
ACAD
 70
     0
  0
ENDTAB
  0
TABLE
  2
DIMSTYLE
  5
A
330
0
100
AcDbSymbolTable
 70
     1
100
AcDbDimStyleTable
  0
DIMSTYLE
105
27
330
A
100
AcDbSymbolTableRecord
100
AcDbDimStyleTableRecord
  2
ISO-25
 70
     0
 41
2.5
 42
0.625
 43
3.75
 44
1.25
 73
     0
 74
     0
 77
     1
 78
     8
140
2.5
141
2.5
143
0.0393700787
147
0.625
171
     3
172
     1
178
     0
271
     2
272
     2
274
     3
278
    44
283
     0
284
     8
340
11
  0
ENDTAB
  0
TABLE
  2
BLOCK_RECORD
  5
1
330
0
100
AcDbSymbolTable
 70
     1
  0
BLOCK_RECORD
  5
1F
330
1
100
AcDbSymbolTableRecord
100
AcDbBlockTableRecord
  2
*Model_Space
340
22
  0
BLOCK_RECORD
  5
1B
330
1
100
AcDbSymbolTableRecord
100
AcDbBlockTableRecord
  2
*Paper_Space
340
1E
  0
BLOCK_RECORD
  5
23
330
1
100
AcDbSymbolTableRecord
100
AcDbBlockTableRecord
  2
*Paper_Space0
340
26
  0
ENDTAB
  0
ENDSEC
  0
SECTION
  2
BLOCKS
  0
BLOCK
  5
20
330
1F
100
AcDbEntity
  8
0
100
AcDbBlockBegin
  2
*Model_Space
 70
     0
 10
0.0
 20
0.0
 30
0.0
  3
*Model_Space
  1

  0
ENDBLK
  5
21
330
1F
100
AcDbEntity
  8
0
100
AcDbBlockEnd
  0
BLOCK
  5
1C
330
1B
100
AcDbEntity
 67
     1
  8
0
100
AcDbBlockBegin
  2
*Paper_Space
 70
     0
 10
0.0
 20
0.0
 30
0.0
  3
*Paper_Space
  1

  0
ENDBLK
  5
1D
330
1B
100
AcDbEntity
 67
     1
  8
0
100
AcDbBlockEnd
  0
BLOCK
  5
24
330
23
100
AcDbEntity
  8
0
100
AcDbBlockBegin
  2
*Paper_Space0
 70
     0
 10
0.0
 20
0.0
 30
0.0
  3
*Paper_Space0
  1

  0
ENDBLK
  5
25
330
23
100
AcDbEntity
  8
0
100
AcDbBlockEnd
  0
ENDSEC
  0
SECTION
  2
ENTITIES
  0
LWPOLYLINE
  5
73
330
1F
100
AcDbEntity
  8
0
  6
Continuous
 62
     7
370
    25
100
AcDbPolyline
 90
       55
 70
   128
 43
0.0
 10
11.8391801298
 20
5.3607237196
 10
12.2476457004
 20
6.5983085087
 10
12.5644308179
 20
7.8733832296
 10
12.7879418856
 20
9.179533583
 10
12.9170545249
 20
10.5101889426
 10
12.951119231
 20
11.858655409
 10
12.8899646405
 20
13.2181494838
 10
12.7338983932
 20
14.5818321935
 10
12.4837055848
 20
15.9428434939
 10
12.1406448172
 20
17.2943367791
 10
11.7064418675
 20
18.6295133241
 10
11.1832810056
 20
19.9416564856
 10
10.5737940072
 20
21.2241654903
 10
9.8810469137
 20
22.4705886407
 10
9.108524609
 20
23.6746557697
 10
8.2601132883
 20
24.8303097838
 10
7.3400809088
 20
25.9317371328
 10
6.3530557191
 20
26.9733970554
 10
5.3040029775
 20
27.9500494518
 10
4.1981999733
 20
28.8567812448
 10
3.0412094798
 20
29.6890310944
 10
1.8388517703
 20
30.4426123443
 10
0.5971753391
 20
31.1137340827
 10
-0.6775735254
 20
31.6990202128
 10
-1.9789821631
 20
32.1955264362
 10
-3.3005038011
 20
32.6007550643
 10
-4.6354904875
 20
32.9126675831
 10
-5.9772265341
 20
33.1296949078
 10
-7.3189622999
 20
33.2507452764
 10
-8.6539481452
 20
33.2752097416
 10
-9.9754683861
 20
33.2029652341
 10
-11.2768750778
 20
33.0343751821
 10
-12.551621457
 20
32.7702876825
 10
-13.7932948763
 20
32.412031235
 10
-14.9956490624
 20
31.9614080587
 10
-16.1526355387
 20
31.4206850262
 10
-17.2584340521
 20
30.7925822601
 10
-18.3074818518
 20
30.0802594489
 10
-19.2945016735
 20
29.2872999527
 10
-20.2145282859
 20
28.4176927766
 10
-21.0629334693
 20
27.4758125041
 10
-21.8354492975
 20
26.4663972904
 10
-22.5281896078
 20
25.3945250273
 10
-23.1376695505
 20
24.2655877983
 10
-23.6608231195
 20
23.0852647542
 10
-24.0950185761
 20
21.8594935433
 10
-24.4380716878
 20
20.5944404422
 10
-24.6882567161
 20
19.2964693363
 10
-24.8443150984
 20
17.9721097059
 10
-24.9054617784
 20
16.6280237793
 10
-24.8713891561
 20
15.2709730189
 10
-24.7422686348
 20
13.9077841068
 10
-24.5187497588
 20
12.5453146032
 10
-24.2019569463
 20
11.1904184494
 10
-23.7934838323
 20
9.8499114888
  0
LWPOLYLINE
  5
74
330
1F
100
AcDbEntity
  8
0
  6
Continuous
 62
     7
370
    25
100
AcDbPolyline
 90
       54
 70
   128
 43
0.0
 10
-23.7934838323
 20
9.8499114888
 10
-24.2005037401
 20
8.5913220876
 10
-24.5128611722
 20
7.2946604576
 10
-24.7289335677
 20
5.9666621916
 10
-24.8475985245
 20
4.6142256624
 10
-24.86823963
 20
3.2443761889
 10
-24.7907496625
 20
1.8642295428
 10
-24.6155311487
 20
0.480954985
 10
-24.3434942725
 20
-0.8982619753
 10
-23.9760521469
 20
-2.2662569066
 10
-23.515113474
 20
-3.6159236707
 10
-22.9630726294
 20
-4.9402513363
 10
-22.3227972249
 20
-6.2323605979
 10
-21.5976132126
 20
-7.4855395103
 10
-20.7912876077
 20
-8.6932783547
 10
-19.9080089206
 20
-9.8493034535
 10
-18.9523653996
 20
-10.9476097597
 10
-17.9293211967
 20
-11.9824920502
 10
-16.8441905811
 20
-12.9485745621
 10
-15.7026103341
 20
-13.8408389172
 10
-14.5105104679
 20
-14.6546501907
 10
-13.2740834224
 20
-15.3857809873
 10
-11.9997518977
 20
-16.0304334009
 10
-10.6941354914
 20
-16.5852587428
 10
-9.3640163123
 20
-17.047374937
 10
-8.0163037504
 20
-17.4143814909
 10
-6.6579985858
 20
-17.6843719654
 10
-5.2961566224
 20
-17.8559438774
 10
-3.9378520363
 20
-17.9282059855
 10
-2.5901406285
 20
-17.9007829197
 10
-1.260023173
 20
-17.7738171307
 10
0.0455909491
 20
-17.5479681505
 10
1.3199196408
 20
-17.2244091663
 10
2.5563433194
 20
-16.8048209262
 10
3.7484393021
 20
-16.2913830083
 10
4.8900151694
 20
-15.6867624992
 10
5.9751409316
 20
-14.9941001391
 10
6.9981798327
 20
-14.2169940074
 10
7.9538176311
 20
-13.3594808322
 10
8.8370902045
 20
-12.4260150211
 10
9.6434093363
 20
-11.4214455226
 10
10.3685865498
 20
-10.3509906379
 10
11.008854865
 20
-9.220210914
 10
11.5608883668
 20
-8.0349802594
 10
12.0218194815
 20
-6.8014554313
 10
12.3892538726
 20
-5.526044054
 10
12.6612828783
 20
-4.2153713346
 10
12.8364934266
 20
-2.8762456471
 10
12.9139753747
 20
-1.5156231665
 10
12.8933262379
 20
-0.1405717342
 10
12.7746532792
 20
1.2417658563
 10
12.5585729531
 20
2.624208963
 10
12.2462077028
 20
3.9995763957
 10
11.8391801298
 20
5.3607237196
  0
LWPOLYLINE
  5
79
330
1F
100
AcDbEntity
  8
0
  6
Continuous
 62
     7
370
    25
100
AcDbPolyline
 90
       54
 70
   128
 43
0.0
 10
39.6131953949
 20
1.861526707
 10
39.2061678219
 20
0.6029406912
 10
38.8938025717
 20
-0.6937180968
 10
38.6777222456
 20
-2.0217140791
 10
38.5590492869
 20
-3.3741488948
 10
38.53840015
 20
-4.7439972337
 10
38.6158820982
 20
-6.1241433301
 10
38.7910926464
 20
-7.5074179259
 10
39.0631216522
 20
-8.8866355118
 10
39.4305560433
 20
-10.254631653
 10
39.8914871579
 20
-11.604300205
 10
40.4435206597
 20
-12.9286302273
 10
41.083788975
 20
-14.2207424019
 10
41.8089661884
 20
-15.4739247688
 10
42.6152853203
 20
-16.6816675911
 10
43.4985578937
 20
-17.8376971705
 10
44.4541956921
 20
-18.9360084368
 10
45.4772345932
 20
-19.9708961411
 10
46.5623603553
 20
-20.9369844923
 10
47.7039362226
 20
-21.829255082
 10
48.8960322054
 20
-22.643072953
 10
50.1324558839
 20
-23.3742106757
 10
51.4067845757
 20
-24.018870308
 10
52.7123986977
 20
-24.5737031237
 10
54.0425161532
 20
-25.035827008
 10
55.390227561
 20
-25.4028414283
 10
56.7485321471
 20
-25.6728399047
 10
58.1103741106
 20
-25.8444199126
 10
59.4686792752
 20
-25.9166901684
 10
60.8163918371
 20
-25.8892752598
 10
62.1465110162
 20
-25.7623175952
 10
63.4521274225
 20
-25.5364766644
 10
64.7264589471
 20
-25.2129256127
 10
65.9628859926
 20
-24.7933451471
 10
67.1549858588
 20
-24.2799148052
 10
68.2965661059
 20
-23.6753016343
 10
69.3816967214
 20
-22.9826463365
 10
70.4047409243
 20
-22.2055469546
 10
71.3603844454
 20
-21.3480401814
 10
72.2436631325
 20
-20.4145803915
 10
73.0499887374
 20
-19.4100165019
 10
73.7751727497
 20
-18.3395667848
 10
74.4154481541
 20
-17.2087917603
 10
74.9674889988
 20
-16.0235653125
 10
75.4284276717
 20
-14.7900441768
 10
75.7958697972
 20
-13.5146359584
 10
76.0679066735
 20
-12.2039658477
 10
76.2431251873
 20
-10.8648422054
 10
76.3206151548
 20
-9.5042211957
 10
76.2999740493
 20
-8.1291706525
 10
76.1813090924
 20
-6.7468333647
 10
75.9652366969
 20
-5.3643899727
 10
75.6528792649
 20
-3.989021668
 10
75.245859357
 20
-2.6278728902
  0
LWPOLYLINE
  5
7A
330
1F
100
AcDbEntity
  8
0
  6
Continuous
 62
     7
370
    25
100
AcDbPolyline
 90
       55
 70
   128
 43
0.0
 10
75.245859357
 20
-2.6278728902
 10
75.654332471
 20
-1.3902914798
 10
75.9711252836
 20
-0.1152196116
 10
76.1946441595
 20
1.1909284293
 10
76.3237646809
 20
2.5215820283
 10
76.3578373032
 20
3.8700472949
 10
76.2966906232
 20
5.2295407365
 10
76.1406322409
 20
6.5932233831
 10
75.8904472125
 20
7.9542351906
 10
75.5473941008
 20
9.3057295506
 10
75.1131986442
 20
10.6409077328
 10
74.5900450752
 20
11.9530530855
 10
73.9805651325
 20
13.2355648246
 10
73.2878248223
 20
14.4819912385
 10
72.5153089941
 20
15.686062144
 10
71.6669038107
 20
16.8417204285
 10
70.7468771982
 20
17.9431525203
 10
69.7598573766
 20
18.9848176342
 10
68.7108095768
 20
19.9614756444
 10
67.6050110635
 20
20.8682134453
 10
66.4480245872
 20
21.7004696669
 10
65.2456704011
 20
22.4540576206
 10
64.0039969818
 20
23.125186361
 10
62.7292506025
 20
23.710479756
 10
61.4278439109
 20
24.2069934708
 10
60.10632367
 20
24.612229779
 10
58.7713378246
 20
24.924150128
 10
57.4296020588
 20
25.1411853937
 10
56.0878660122
 20
25.262243774
 10
54.7528793258
 20
25.2867162813
 10
53.4313576878
 20
25.214479806
 10
52.1299490502
 20
25.0458977357
 10
50.8552001857
 20
24.7818181274
 10
49.6135237545
 20
24.4235694408
 10
48.4111660449
 20
23.9729538561
 10
47.2541755514
 20
23.4322382078
 10
46.1483725472
 20
22.8041425812
 10
45.0993198056
 20
22.0918266289
 10
44.112294616
 20
21.2988736767
 10
43.1922622364
 20
20.4292726966
 10
42.3438509157
 20
19.4873982409
 10
41.571328611
 20
18.4779884356
 10
40.8785815176
 20
17.4061211453
 10
40.2690945191
 20
16.2771884285
 10
39.7459336573
 20
15.0968694133
 10
39.3117307075
 20
13.8711017276
 10
38.96866994
 20
12.6060516305
 10
38.7184771316
 20
11.3080829921
 10
38.5624108843
 20
9.9837252803
 10
38.5012562937
 20
8.6396407139
 10
38.5353209999
 20
7.2825907483
 10
38.6644336392
 20
5.9194020616
 10
38.8879447069
 20
4.556932213
 10
39.2047298243
 20
3.2020351455
 10
39.6131953949
 20
1.861526707
  0
LWPOLYLINE
  5
7B
330
1F
100
AcDbEntity
  8
0
  6
Continuous
 62
     7
370
    25
100
AcDbPolyline
 90
       24
 70
   128
 43
0.0
 10
-22.3724984239
 20
32.6206163548
 10
-22.4236003456
 20
33.0017878134
 10
-22.5731161151
 20
33.3675660027
 10
-22.8099568317
 20
33.6908228276
 10
-23.1165571029
 20
33.9475838082
 10
-23.4701777892
 20
34.1188061572
 10
-23.844592462
 20
34.1917910962
 10
-24.2120324979
 20
34.1611256663
 10
-24.5452465504
 20
34.029084182
 10
-24.8195216574
 20
33.8054595563
 10
-25.0145160891
 20
33.5068370045
 10
-25.1157680005
 20
33.1553639953
 10
-25.1157680005
 20
32.7771076738
 10
-25.0145160891
 20
32.4001215811
 10
-24.8195216574
 20
32.0523650509
 10
-24.5452465504
 20
31.7596295943
 10
-24.2120324979
 20
31.543626061
 10
-23.844592462
 20
31.4203744447
 10
-23.4701777892
 20
31.3990157542
 10
-23.1165571029
 20
31.4811340656
 10
-22.8099568317
 20
31.6606390397
 10
-22.5731161151
 20
31.9242176135
 10
-22.4236003456
 20
32.2523213701
 10
-22.3724984239
 20
32.6206163548
  0
LWPOLYLINE
  5
7C
330
1F
100
AcDbEntity
  8
0
  6
Continuous
 62
     7
370
    25
100
AcDbPolyline
 90
       24
 70
   128
 43
0.0
 10
76.5806955963
 20
-29.6684923557
 10
76.5295936745
 20
-29.287320897
 10
76.380077905
 20
-28.9215427078
 10
76.1432371884
 20
-28.5982858829
 10
75.8366369172
 20
-28.3415249023
 10
75.4830162309
 20
-28.1703025533
 10
75.1086015581
 20
-28.0973176143
 10
74.7411615222
 20
-28.1279830442
 10
74.4079474697
 20
-28.2600245284
 10
74.1336723627
 20
-28.4836491542
 10
73.938677931
 20
-28.782271706
 10
73.8374260196
 20
-29.1337447152
 10
73.8374260196
 20
-29.5120010366
 10
73.938677931
 20
-29.8889871294
 10
74.1336723627
 20
-30.2367436596
 10
74.4079474697
 20
-30.5294791161
 10
74.7411615222
 20
-30.7454826495
 10
75.1086015581
 20
-30.8687342657
 10
75.4830162309
 20
-30.8900929563
 10
75.8366369172
 20
-30.8079746448
 10
76.1432371884
 20
-30.6284696708
 10
76.380077905
 20
-30.364891097
 10
76.5295936745
 20
-30.0367873404
 10
76.5806955963
 20
-29.6684923557
  0
LWPOLYLINE
  5
7D
330
1F
100
AcDbEntity
  8
0
  6
Continuous
 62
     7
370
    25
100
AcDbPolyline
 90
       24
 70
   128
 43
0.0
 10
76.5800602055
 20
20.1543319723
 10
76.5289582837
 20
20.535503431
 10
76.3794425142
 20
20.9012816202
 10
76.1426017976
 20
21.2245384451
 10
75.8360015264
 20
21.4812994257
 10
75.4823808401
 20
21.6525217747
 10
75.1079661673
 20
21.7255067138
 10
74.7405261314
 20
21.6948412838
 10
74.4073120789
 20
21.5627997996
 10
74.1330369719
 20
21.3391751738
 10
73.9380425402
 20
21.0405526221
 10
73.8367906288
 20
20.6890796129
 10
73.8367906288
 20
20.3108232914
 10
73.9380425402
 20
19.9338371986
 10
74.1330369719
 20
19.5860806685
 10
74.4073120789
 20
19.2933452119
 10
74.7405261314
 20
19.0773416785
 10
75.1079661673
 20
18.9540900623
 10
75.4823808401
 20
18.9327313717
 10
75.8360015264
 20
19.0148496832
 10
76.1426017976
 20
19.1943546572
 10
76.3794425142
 20
19.457933231
 10
76.5289582837
 20
19.7860369876
 10
76.5800602055
 20
20.1543319723
  0
LWPOLYLINE
  5
7E
330
1F
100
AcDbEntity
  8
0
  6
Continuous
 62
     7
370
    25
100
AcDbPolyline
 90
       24
 70
   128
 43
0.0
 10
41.0343151026
 20
24.6322143973
 10
40.9832131808
 20
25.0133858559
 10
40.8336974113
 20
25.3791640452
 10
40.5968566948
 20
25.7024208701
 10
40.2902564236
 20
25.9591818507
 10
39.9366357372
 20
26.1304041996
 10
39.5622210644
 20
26.2033891387
 10
39.1947810285
 20
26.1727237088
 10
38.8615669761
 20
26.0406822245
 10
38.587291869
 20
25.8170575988
 10
38.3922974373
 20
25.518435047
 10
38.2910455259
 20
25.1669620378
 10
38.2910455259
 20
24.7887057163
 10
38.3922974373
 20
24.4117196236
 10
38.587291869
 20
24.0639630934
 10
38.8615669761
 20
23.7712276368
 10
39.1947810285
 20
23.5552241035
 10
39.5622210644
 20
23.4319724872
 10
39.9366357372
 20
23.4106137967
 10
40.2902564236
 20
23.4927321081
 10
40.5968566948
 20
23.6722370822
 10
40.8336974113
 20
23.935815656
 10
40.9832131808
 20
24.2639194126
 10
41.0343151026
 20
24.6322143973
  0
LWPOLYLINE
  5
7F
330
1F
100
AcDbEntity
  8
0
  6
Continuous
 62
     7
370
    25
100
AcDbPolyline
 90
       24
 70
   128
 43
0.0
 10
13.1732466757
 20
28.1429452416
 10
13.122144754
 20
28.5241167003
 10
12.9726289845
 20
28.8898948895
 10
12.7357882679
 20
29.2131517144
 10
12.4291879967
 20
29.469912695
 10
12.0755673104
 20
29.641135044
 10
11.7011526375
 20
29.714119983
 10
11.3337126016
 20
29.6834545531
 10
11.0004985492
 20
29.5514130689
 10
10.7262234422
 20
29.3277884431
 10
10.5312290105
 20
29.0291658913
 10
10.4299770991
 20
28.6776928821
 10
10.4299770991
 20
28.2994365606
 10
10.5312290105
 20
27.9224504679
 10
10.7262234422
 20
27.5746939377
 10
11.0004985492
 20
27.2819584812
 10
11.3337126016
 20
27.0659549478
 10
11.7011526375
 20
26.9427033316
 10
12.0755673104
 20
26.921344641
 10
12.4291879967
 20
27.0034629525
 10
12.7357882679
 20
27.1829679265
 10
12.9726289845
 20
27.4465465003
 10
13.122144754
 20
27.7746502569
 10
13.1732466757
 20
28.1429452416
  0
LWPOLYLINE
  5
80
330
1F
100
AcDbEntity
  8
0
  6
Continuous
 62
     7
370
    25
100
AcDbPolyline
 90
       24
 70
   128
 43
0.0
 10
-22.3715714761
 20
-17.2022447013
 10
-22.4226733978
 20
-16.8210732427
 10
-22.5721891673
 20
-16.4552950534
 10
-22.8090298839
 20
-16.1320382286
 10
-23.1156301551
 20
-15.875277248
 10
-23.4692508414
 20
-15.704054899
 10
-23.8436655143
 20
-15.6310699599
 10
-24.2111055502
 20
-15.6617353898
 10
-24.5443196026
 20
-15.7937768741
 10
-24.8185947096
 20
-16.0174014998
 10
-25.0135891413
 20
-16.3160240516
 10
-25.1148410527
 20
-16.6674970608
 10
-25.1148410527
 20
-17.0457533823
 10
-25.0135891413
 20
-17.4227394751
 10
-24.8185947096
 20
-17.7704960052
 10
-24.5443196026
 20
-18.0632314618
 10
-24.2111055502
 20
-18.2792349951
 10
-23.8436655143
 20
-18.4024866114
 10
-23.4692508414
 20
-18.4238453019
 10
-23.1156301551
 20
-18.3417269905
 10
-22.8090298839
 20
-18.1622220164
 10
-22.5721891673
 20
-17.8986434426
 10
-22.4226733978
 20
-17.570539686
 10
-22.3715714761
 20
-17.2022447013
  0
LWPOLYLINE
  5
81
330
1F
100
AcDbEntity
  8
0
  6
Continuous
 62
     7
370
    25
100
AcDbPolyline
 90
       24
 70
   128
 43
0.0
 10
13.1741736235
 20
-21.6799158145
 10
13.1230717017
 20
-21.2987443558
 10
12.9735559323
 20
-20.9329661666
 10
12.7367152157
 20
-20.6097093417
 10
12.4301149445
 20
-20.3529483611
 10
12.0764942581
 20
-20.1817260121
 10
11.7020795853
 20
-20.1087410731
 10
11.3346395494
 20
-20.139406503
 10
11.001425497
 20
-20.2714479872
 10
10.7271503899
 20
-20.495072613
 10
10.5321559582
 20
-20.7936951648
 10
10.4309040469
 20
-21.145168174
 10
10.4309040469
 20
-21.5234244955
 10
10.5321559582
 20
-21.9004105882
 10
10.7271503899
 20
-22.2481671184
 10
11.001425497
 20
-22.5409025749
 10
11.3346395494
 20
-22.7569061083
 10
11.7020795853
 20
-22.8801577245
 10
12.0764942581
 20
-22.9015164151
 10
12.4301149445
 20
-22.8193981036
 10
12.7367152157
 20
-22.6398931296
 10
12.9735559323
 20
-22.3763145558
 10
13.1230717017
 20
-22.0482107992
 10
13.1741736235
 20
-21.6799158145
  0
LWPOLYLINE
  5
82
330
1F
100
AcDbEntity
  8
0
  6
Continuous
 62
     7
370
    25
100
AcDbPolyline
 90
       24
 70
   128
 43
0.0
 10
41.0349504934
 20
-25.1906099308
 10
40.9838485716
 20
-24.8094384721
 10
40.8343328021
 20
-24.4436602829
 10
40.5974920856
 20
-24.120403458
 10
40.2908918144
 20
-23.8636424774
 10
39.937271128
 20
-23.6924201284
 10
39.5628564552
 20
-23.6194351893
 10
39.1954164193
 20
-23.6501006192
 10
38.8622023669
 20
-23.7821421035
 10
38.5879272598
 20
-24.0057667292
 10
38.3929328281
 20
-24.304389281
 10
38.2916809167
 20
-24.6558622902
 10
38.2916809167
 20
-25.0341186117
 10
38.3929328281
 20
-25.4111047045
 10
38.5879272598
 20
-25.7588612346
 10
38.8622023669
 20
-26.0515966912
 10
39.1954164193
 20
-26.2676002246
 10
39.5628564552
 20
-26.3908518408
 10
39.937271128
 20
-26.4122105314
 10
40.2908918144
 20
-26.3300922199
 10
40.5974920856
 20
-26.1505872459
 10
40.8343328021
 20
-25.8870086721
 10
40.9838485716
 20
-25.5589049155
 10
41.0349504934
 20
-25.1906099308
  0
LWPOLYLINE
  5
8B
330
1F
100
AcDbEntity
  8
0
  6
Continuous
 62
     7
370
    25
100
AcDbPolyline
 90
       38
 70
   128
 43
0.0
 10
41.3809623475
 20
3.4205506178
 10
40.9739347745
 20
2.161964602
 10
40.6615695242
 20
0.865305814
 10
40.4454891981
 20
-0.4626901683
 10
40.3268162395
 20
-1.8151249839
 10
40.3061671026
 20
-3.1849733228
 10
40.3836490507
 20
-4.5651194192
 10
40.558859599
 20
-5.9483940151
 10
40.8308886048
 20
-7.327611601
 10
41.1983229958
 20
-8.6956077422
 10
41.6592541105
 20
-10.0452762941
 10
42.2112876123
 20
-11.3696063164
 10
42.8515559275
 20
-12.6617184911
 10
43.576733141
 20
-13.914900858
 10
44.3830522729
 20
-15.1226436802
 10
45.2663248462
 20
-16.2786732597
 10
46.2219626446
 20
-17.376984526
 10
47.2450015458
 20
-18.4118722303
 10
48.3301273079
 20
-19.3779605815
 10
49.4717031752
 20
-20.2702311712
 10
50.6637991579
 20
-21.0840490422
 10
51.9002228365
 20
-21.8151867649
 10
53.1745515282
 20
-22.4598463972
 10
54.4801656503
 20
-23.0146792129
 10
55.8102831058
 20
-23.4768030971
 10
57.1579945136
 20
-23.8438175175
 10
58.5162990997
 20
-24.1138159939
 10
59.8781410631
 20
-24.2853960017
 10
61.2364462278
 20
-24.3576662576
 10
62.5841587896
 20
-24.330251349
 10
63.9142779688
 20
-24.2032936844
 10
65.219894375
 20
-23.9774527536
 10
66.4942258997
 20
-23.6539017019
 10
67.7306529452
 20
-23.2343212362
 10
68.9227528114
 20
-22.7208908944
 10
70.0643330585
 20
-22.1162777235
 10
71.149463674
 20
-21.4236224257
 10
71.6450676969
 20
-21.0635944062
  0
LWPOLYLINE
  5
92
330
1F
100
AcDbEntity
  8
0
  6
Continuous
 62
     7
370
    25
100
AcDbPolyline
 90
       38
 70
   128
 43
0.0
 10
-22.0257168797
 20
11.4089353996
 10
-22.4327367875
 20
10.1503459984
 10
-22.7450942196
 20
8.8536843685
 10
-22.9611666151
 20
7.5256861025
 10
-23.079831572
 20
6.1732495733
 10
-23.1004726775
 20
4.8034000998
 10
-23.02298271
 20
3.4232534536
 10
-22.8477641961
 20
2.0399788959
 10
-22.5757273199
 20
0.6607619355
 10
-22.2082851944
 20
-0.7072329958
 10
-21.7473465214
 20
-2.0568997598
 10
-21.1953056768
 20
-3.3812274255
 10
-20.5550302724
 20
-4.6733366871
 10
-19.8298462601
 20
-5.9265155995
 10
-19.0235206551
 20
-7.1342544438
 10
-18.140241968
 20
-8.2902795427
 10
-17.184598447
 20
-9.3885858489
 10
-16.1615542441
 20
-10.4234681394
 10
-15.0764236286
 20
-11.3895506512
 10
-13.9348433815
 20
-12.2818150063
 10
-12.7427435153
 20
-13.0956262798
 10
-11.5063164698
 20
-13.8267570765
 10
-10.2319849452
 20
-14.4714094901
 10
-8.9263685389
 20
-15.026234832
 10
-7.5962493598
 20
-15.4883510261
 10
-6.2485367979
 20
-15.8553575801
 10
-4.8902316332
 20
-16.1253480545
 10
-3.5283896698
 20
-16.2969199665
 10
-2.1700850837
 20
-16.3691820747
 10
-0.8223736759
 20
-16.3417590088
 10
0.5077437796
 20
-16.2147932198
 10
1.8133579017
 20
-15.9889442397
 10
3.0876865934
 20
-15.6653852555
 10
4.324110272
 20
-15.2457970153
 10
5.5162062547
 20
-14.7323590975
 10
6.657782122
 20
-14.1277385883
 10
7.7429078841
 20
-13.4350762282
 10
8.2384255895
 20
-13.0751083871
  0
LINE
  5
96
330
1F
100
AcDbEntity
  8
0
  6
Continuous
 62
     7
370
    25
100
AcDbLine
 10
85.604187816
 20
-41.2895329983
 30
0.0
 11
85.604187816
 21
29.5012843676
 31
0.0
  0
LINE
  5
97
330
1F
100
AcDbEntity
  8
0
  6
Continuous
 62
     7
370
    25
100
AcDbLine
 10
-34.1518122913
 20
-26.2016951824
 30
0.0
 11
85.604187816
 21
-41.2895329983
 31
0.0
  0
LINE
  5
98
330
1F
100
AcDbEntity
  8
0
  6
Continuous
 62
     7
370
    25
100
AcDbLine
 10
-34.1518122913
 20
-26.2016951824
 30
0.0
 11
-34.1518122913
 21
44.5891221835
 31
0.0
  0
LINE
  5
99
330
1F
100
AcDbEntity
  8
0
  6
Continuous
 62
     7
370
    25
100
AcDbLine
 10
-34.1518122913
 20
44.5891221835
 30
0.0
 11
85.604187816
 21
29.5012843676
 31
0.0
  0
LINE
  5
9A
330
1F
100
AcDbEntity
  8
0
  6
Continuous
 62
     7
370
    25
100
AcDbLine
 10
85.604187816
 20
29.5012843676
 30
0.0
 11
87.3719547686
 21
31.0603082784
 31
0.0
  0
LINE
  5
9B
330
1F
100
AcDbEntity
  8
0
  6
Continuous
 62
     7
370
    25
100
AcDbLine
 10
-34.1518122913
 20
44.5891221835
 30
0.0
 11
-32.3840453387
 21
46.1481460943
 31
0.0
  0
LINE
  5
9C
330
1F
100
AcDbEntity
  8
0
  6
Continuous
 62
     7
370
    25
100
AcDbLine
 10
-32.3840453387
 20
46.1481460943
 30
0.0
 11
87.3719547686
 21
31.0603082784
 31
0.0
  0
LINE
  5
9D
330
1F
100
AcDbEntity
  8
0
  6
Continuous
 62
     7
370
    25
100
AcDbLine
 10
85.604187816
 20
-41.2895329983
 30
0.0
 11
87.3719547686
 21
-39.7305090874
 31
0.0
  0
LINE
  5
9E
330
1F
100
AcDbEntity
  8
0
  6
Continuous
 62
     7
370
    25
100
AcDbLine
 10
87.3719547686
 20
-39.7305090874
 30
0.0
 11
87.3719547686
 21
31.0603082784
 31
0.0
  0
LINE
  5
9F
330
1F
100
AcDbEntity
  8
0
  6
Continuous
 62
     7
370
    25
100
AcDbLine
 10
39.6131953949
 20
1.861526707
 30
0.0
 11
41.3809623475
 21
3.4205506178
 31
0.0
  0
LINE
  5
A0
330
1F
100
AcDbEntity
  8
0
  6
Continuous
 62
     7
370
    25
100
AcDbLine
 10
-23.7934838323
 20
9.8499114888
 30
0.0
 11
-22.0257168797
 21
11.4089353996
 31
0.0
  0
ARC
  5
A1
330
1F
100
AcDbEntity
  8
0
  6
Continuous
 62
     7
370
    25
100
AcDbCircle
 10
58.3188837207
 20
9.7845730114
 30
0.0
 40
18.09403110064986
100
AcDbArc
 50
137.5981623532
 51
200.5925195497
  0
ARC
  5
A2
330
1F
100
AcDbEntity
  8
0
  6
Continuous
 62
     7
370
    25
100
AcDbCircle
 10
77.2310949761
 20
22.1174369517
 30
0.0
 40
1.648072955349926
100
AcDbArc
 50
199.3051409585
 51
243.5141032615
  0
ARC
  5
A3
330
1F
100
AcDbEntity
  8
0
  6
Continuous
 62
     7
370
    25
100
AcDbCircle
 10
41.6853498732
 20
26.5953193767
 30
0.0
 40
1.648072955349812
100
AcDbArc
 50
199.3051409584
 51
243.5141032615
  0
ARC
  5
A4
330
1F
100
AcDbEntity
  8
0
  6
Continuous
 62
     7
370
    25
100
AcDbCircle
 10
77.2317303669
 20
-27.7053873763
 30
0.0
 40
1.648072955349972
100
AcDbArc
 50
199.3051409584
 51
243.5141032615
  0
ARC
  5
A5
330
1F
100
AcDbEntity
  8
0
  6
Continuous
 62
     7
370
    25
100
AcDbCircle
 10
-5.0878088389
 20
17.7730602375
 30
0.0
 40
18.09405465203027
100
AcDbArc
 50
137.598195199
 51
200.5928380668
  0
ARC
  5
A6
330
1F
100
AcDbEntity
  8
0
  6
Continuous
 62
     7
370
    25
100
AcDbCircle
 10
13.8242814464
 20
30.106050221
 30
0.0
 40
1.648072955349775
100
AcDbArc
 50
199.3051409584
 51
243.5141032615
  0
ARC
  5
A7
330
1F
100
AcDbEntity
  8
0
  6
Continuous
 62
     7
370
    25
100
AcDbCircle
 10
41.685985264
 20
-23.2275049514
 30
0.0
 40
1.648072955349886
100
AcDbArc
 50
199.3051409585
 51
243.5141032615
  0
ARC
  5
A8
330
1F
100
AcDbEntity
  8
0
  6
Continuous
 62
     7
370
    25
100
AcDbCircle
 10
-21.7214636532
 20
34.5837213342
 30
0.0
 40
1.648072955349904
100
AcDbArc
 50
199.3051409584
 51
243.5141032615
  0
ARC
  5
A9
330
1F
100
AcDbEntity
  8
0
  6
Continuous
 62
     7
370
    25
100
AcDbCircle
 10
13.8252083941
 20
-19.7168108351
 30
0.0
 40
1.648072955349859
100
AcDbArc
 50
199.3051409584
 51
243.5141032615
  0
ARC
  5
AA
330
1F
100
AcDbEntity
  8
0
  6
Continuous
 62
     7
370
    25
100
AcDbCircle
 10
-21.7205367054
 20
-15.2391397219
 30
0.0
 40
1.648072955349833
100
AcDbArc
 50
199.3051409584
 51
243.5141032615
  0
MTEXT
  5
AC
330
1F
100
AcDbEntity
  8
0
  6
Continuous
 62
     7
100
AcDbMText
 10
-34.1518122913
 20
-42.3090993899
 30
0.0
 40
4.83362
 41
0.0
 71
     1
 72
     1
  1
SOLIDWORKS Educational Product.
  7
SLDTEXTSTYLE0
 73
     1
 44
1.0
  0
MTEXT
  5
AD
330
1F
100
AcDbEntity
  8
0
  6
Continuous
 62
     7
100
AcDbMText
 10
-34.1518122913
 20
-49.5595293899
 30
0.0
 40
4.83362
 41
0.0
 71
     1
 72
     1
  1
For Instructional Use Only.
  7
SLDTEXTSTYLE0
 73
     1
 44
1.0
  0
ENDSEC
  0
SECTION
  2
OBJECTS
  0
DICTIONARY
  5
C
330
0
100
AcDbDictionary
281
     1
  3
ACAD_GROUP
350
D
  3
ACAD_LAYOUT
350
1A
  3
ACAD_MLINESTYLE
350
17
  3
ACAD_PLOTSETTINGS
350
19
  3
ACAD_PLOTSTYLENAME
350
E
  3
ACAD_SCALELIST
350
47
  3
DWGPROPS
350
AE
  0
DICTIONARY
  5
D
102
{ACAD_REACTORS
330
C
102
}
330
C
100
AcDbDictionary
281
     1
  0
DICTIONARY
  5
1A
102
{ACAD_REACTORS
330
C
102
}
330
C
100
AcDbDictionary
281
     1
  3
Layout1
350
1E
  3
Layout2
350
26
  3
Model
350
22
  0
DICTIONARY
  5
17
102
{ACAD_REACTORS
330
C
102
}
330
C
100
AcDbDictionary
281
     1
  3
Standard
350
18
  0
DICTIONARY
  5
19
102
{ACAD_REACTORS
330
C
102
}
330
C
100
AcDbDictionary
281
     1
  0
ACDBDICTIONARYWDFLT
  5
E
102
{ACAD_REACTORS
330
C
102
}
330
C
100
AcDbDictionary
281
     1
  3
Normal
350
F
100
AcDbDictionaryWithDefault
340
F
  0
DICTIONARY
  5
47
102
{ACAD_REACTORS
330
C
102
}
330
C
100
AcDbDictionary
281
     1
  3
A0
350
48
  3
A1
350
49
  3
A2
350
4A
  3
A3
350
4B
  3
A4
350
4C
  3
A5
350
4D
  3
A6
350
4E
  3
A7
350
4F
  3
A8
350
50
  3
A9
350
51
  3
B0
350
52
  3
B1
350
53
  3
B2
350
54
  3
B3
350
55
  3
B4
350
56
  3
B5
350
57
  3
B6
350
58
  3
B7
350
59
  3
B8
350
5A
  3
B9
350
5B
  3
C0
350
5C
  3
C1
350
5D
  3
C2
350
5E
  3
C3
350
5F
  3
C4
350
60
  3
C5
350
61
  3
C6
350
62
  3
C7
350
63
  3
C8
350
64
  3
C9
350
65
  3
D0
350
66
  3
D1
350
67
  3
D2
350
68
  0
XRECORD
  5
AE
102
{ACAD_REACTORS
330
C
102
}
330
C
100
AcDbXrecord
280
     1
  1
DWGPROPS COOKIE
  2

  3

  4

  6

  7

  8
duck7
  9

300
=
301
=
302
=
303
=
304
=
305
=
306
=
307
=
308
=
309
=
 40
0.0
 41
2460131.658901181
 42
2460131.658986053
  1

 90
        0
  0
LAYOUT
  5
1E
102
{ACAD_REACTORS
330
1A
102
}
330
1A
100
AcDbPlotSettings
  1

  2
none_device
  4

  6

 40
0.0
 41
0.0
 42
0.0
 43
0.0
 44
0.0
 45
0.0
 46
0.0
 47
0.0
 48
0.0
 49
0.0
140
0.0
141
0.0
142
1.0
143
1.0
 70
   688
 72
     1
 73
     0
 74
     5
  7

 75
    16
147
1.0
148
0.0
149
0.0
100
AcDbLayout
  1
Layout1
 70
     1
 71
     1
 10
0.0
 20
0.0
 11
420.0
 21
297.0
 12
0.0
 22
0.0
 32
0.0
 14
1.0000000000E+20
 24
1.0000000000E+20
 34
1.0000000000E+20
 15
-1.0000000000E+20
 25
-1.0000000000E+20
 35
-1.0000000000E+20
146
0.0
 13
0.0
 23
0.0
 33
0.0
 16
1.0
 26
0.0
 36
0.0
 17
0.0
 27
1.0
 37
0.0
 76
     0
330
1B
  0
LAYOUT
  5
26
102
{ACAD_REACTORS
330
1A
102
}
330
1A
100
AcDbPlotSettings
  1

  2
none_device
  4

  6

 40
0.0
 41
0.0
 42
0.0
 43
0.0
 44
0.0
 45
0.0
 46
0.0
 47
0.0
 48
0.0
 49
0.0
140
0.0
141
0.0
142
1.0
143
1.0
 70
   688
 72
     1
 73
     0
 74
     5
  7

 75
    16
147
1.0
148
0.0
149
0.0
100
AcDbLayout
  1
Layout2
 70
     1
 71
     2
 10
0.0
 20
0.0
 11
0.0
 21
0.0
 12
0.0
 22
0.0
 32
0.0
 14
0.0
 24
0.0
 34
0.0
 15
0.0
 25
0.0
 35
0.0
146
0.0
 13
0.0
 23
0.0
 33
0.0
 16
1.0
 26
0.0
 36
0.0
 17
0.0
 27
1.0
 37
0.0
 76
     0
330
23
  0
LAYOUT
  5
22
102
{ACAD_REACTORS
330
1A
102
}
330
1A
100
AcDbPlotSettings
  1

  2
none_device
  4
ANSI_A_(11.00_x_8.50_Inches)
  6

 40
6.35
 41
19.05
 42
6.35000508
 43
19.05000254
 44
279.4
 45
215.9
 46
72.7815544046
 47
83.3705390755
 48
0.0
 49
0.0
140
0.0
141
0.0
142
0.0896121003
143
1.0
 70
  1696
 72
     0
 73
     0
 74
     0
  7

 75
     0
147
0.0179189148
148
-1300.4909072572
149
0.0
100
AcDbLayout
  1
Model
 70
     1
 71
     0
 10
0.0
 20
0.0
 11
420.0
 21
297.0
 12
0.0
 22
0.0
 32
0.0
 14
-34.1518122913
 24
-41.2895329983
 34
0.0
 15
87.3719547686
 25
46.1481460943
 35
0.0
146
0.0
 13
0.0
 23
0.0
 33
0.0
 16
1.0
 26
0.0
 36
0.0
 17
0.0
 27
1.0
 37
0.0
 76
     0
330
1F
331
29
  0
MLINESTYLE
  5
18
102
{ACAD_REACTORS
330
17
102
}
330
17
100
AcDbMlineStyle
  2
Standard
 70
     0
  3

 62
   256
 51
90.0
 52
90.0
 71
     2
 49
0.5
 62
   256
  6
BYLAYER
 49
-0.5
 62
   256
  6
BYLAYER
  0
ACDBPLACEHOLDER
  5
F
102
{ACAD_REACTORS
330
E
102
}
330
E
  0
SCALE
  5
48
102
{ACAD_REACTORS
330
47
102
}
330
47
100
AcDbScale
 70
     0
300
1:1
140
1.0
141
1.0
290
     1
  0
SCALE
  5
49
102
{ACAD_REACTORS
330
47
102
}
330
47
100
AcDbScale
 70
     0
300
1:2
140
1.0
141
2.0
290
     0
  0
SCALE
  5
4A
102
{ACAD_REACTORS
330
47
102
}
330
47
100
AcDbScale
 70
     0
300
1:4
140
1.0
141
4.0
290
     0
  0
SCALE
  5
4B
102
{ACAD_REACTORS
330
47
102
}
330
47
100
AcDbScale
 70
     0
300
1:5
140
1.0
141
5.0
290
     0
  0
SCALE
  5
4C
102
{ACAD_REACTORS
330
47
102
}
330
47
100
AcDbScale
 70
     0
300
1:8
140
1.0
141
8.0
290
     0
  0
SCALE
  5
4D
102
{ACAD_REACTORS
330
47
102
}
330
47
100
AcDbScale
 70
     0
300
1:10
140
1.0
141
10.0
290
     0
  0
SCALE
  5
4E
102
{ACAD_REACTORS
330
47
102
}
330
47
100
AcDbScale
 70
     0
300
1:16
140
1.0
141
16.0
290
     0
  0
SCALE
  5
4F
102
{ACAD_REACTORS
330
47
102
}
330
47
100
AcDbScale
 70
     0
300
1:20
140
1.0
141
20.0
290
     0
  0
SCALE
  5
50
102
{ACAD_REACTORS
330
47
102
}
330
47
100
AcDbScale
 70
     0
300
1:30
140
1.0
141
30.0
290
     0
  0
SCALE
  5
51
102
{ACAD_REACTORS
330
47
102
}
330
47
100
AcDbScale
 70
     0
300
1:40
140
1.0
141
40.0
290
     0
  0
SCALE
  5
52
102
{ACAD_REACTORS
330
47
102
}
330
47
100
AcDbScale
 70
     0
300
1:50
140
1.0
141
50.0
290
     0
  0
SCALE
  5
53
102
{ACAD_REACTORS
330
47
102
}
330
47
100
AcDbScale
 70
     0
300
1:100
140
1.0
141
100.0
290
     0
  0
SCALE
  5
54
102
{ACAD_REACTORS
330
47
102
}
330
47
100
AcDbScale
 70
     0
300
2:1
140
2.0
141
1.0
290
     0
  0
SCALE
  5
55
102
{ACAD_REACTORS
330
47
102
}
330
47
100
AcDbScale
 70
     0
300
4:1
140
4.0
141
1.0
290
     0
  0
SCALE
  5
56
102
{ACAD_REACTORS
330
47
102
}
330
47
100
AcDbScale
 70
     0
300
8:1
140
8.0
141
1.0
290
     0
  0
SCALE
  5
57
102
{ACAD_REACTORS
330
47
102
}
330
47
100
AcDbScale
 70
     0
300
10:1
140
10.0
141
1.0
290
     0
  0
SCALE
  5
58
102
{ACAD_REACTORS
330
47
102
}
330
47
100
AcDbScale
 70
     0
300
100:1
140
100.0
141
1.0
290
     0
  0
SCALE
  5
59
102
{ACAD_REACTORS
330
47
102
}
330
47
100
AcDbScale
 70
     0
300
1/128" = 1'-0"
140
0.0078125
141
12.0
290
     0
  0
SCALE
  5
5A
102
{ACAD_REACTORS
330
47
102
}
330
47
100
AcDbScale
 70
     0
300
1/64" = 1'-0"
140
0.015625
141
12.0
290
     0
  0
SCALE
  5
5B
102
{ACAD_REACTORS
330
47
102
}
330
47
100
AcDbScale
 70
     0
300
1/32" = 1'-0"
140
0.03125
141
12.0
290
     0
  0
SCALE
  5
5C
102
{ACAD_REACTORS
330
47
102
}
330
47
100
AcDbScale
 70
     0
300
1/16" = 1'-0"
140
0.0625
141
12.0
290
     0
  0
SCALE
  5
5D
102
{ACAD_REACTORS
330
47
102
}
330
47
100
AcDbScale
 70
     0
300
3/32" = 1'-0"
140
0.09375
141
12.0
290
     0
  0
SCALE
  5
5E
102
{ACAD_REACTORS
330
47
102
}
330
47
100
AcDbScale
 70
     0
300
1/8" = 1'-0"
140
0.125
141
12.0
290
     0
  0
SCALE
  5
5F
102
{ACAD_REACTORS
330
47
102
}
330
47
100
AcDbScale
 70
     0
300
3/16" = 1'-0"
140
0.1875
141
12.0
290
     0
  0
SCALE
  5
60
102
{ACAD_REACTORS
330
47
102
}
330
47
100
AcDbScale
 70
     0
300
1/4" = 1'-0"
140
0.25
141
12.0
290
     0
  0
SCALE
  5
61
102
{ACAD_REACTORS
330
47
102
}
330
47
100
AcDbScale
 70
     0
300
3/8" = 1'-0"
140
0.375
141
12.0
290
     0
  0
SCALE
  5
62
102
{ACAD_REACTORS
330
47
102
}
330
47
100
AcDbScale
 70
     0
300
1/2" = 1'-0"
140
0.5
141
12.0
290
     0
  0
SCALE
  5
63
102
{ACAD_REACTORS
330
47
102
}
330
47
100
AcDbScale
 70
     0
300
3/4" = 1'-0"
140
0.75
141
12.0
290
     0
  0
SCALE
  5
64
102
{ACAD_REACTORS
330
47
102
}
330
47
100
AcDbScale
 70
     0
300
1" = 1'-0"
140
1.0
141
12.0
290
     0
  0
SCALE
  5
65
102
{ACAD_REACTORS
330
47
102
}
330
47
100
AcDbScale
 70
     0
300
1-1/2" = 1'-0"
140
1.5
141
12.0
290
     0
  0
SCALE
  5
66
102
{ACAD_REACTORS
330
47
102
}
330
47
100
AcDbScale
 70
     0
300
3" = 1'-0"
140
3.0
141
12.0
290
     0
  0
SCALE
  5
67
102
{ACAD_REACTORS
330
47
102
}
330
47
100
AcDbScale
 70
     0
300
6" = 1'-0"
140
6.0
141
12.0
290
     0
  0
SCALE
  5
68
102
{ACAD_REACTORS
330
47
102
}
330
47
100
AcDbScale
 70
     0
300
1'-0" = 1'-0"
140
12.0
141
12.0
290
     0
  0
ENDSEC
  0
EOF
