  0
SECTION
  2
HEADER
  9
$ACADVER
  1
AC1015
  9
$ACADMAINTVER
 70
     6
  9
$DWGCODEPAGE
  3
ANSI_1252
  9
$INSBASE
 10
0.0
 20
0.0
 30
0.0
  9
$EXTMIN
 10
-28.0155711658
 20
-65.0450516982
 30
0.0
  9
$EXTMAX
 10
66.0469896776
 20
50.5660761172
 30
0.0
  9
$LIMMIN
 10
0.0
 20
0.0
  9
$LIMMAX
 10
420.0
 20
297.0
  9
$ORTHOMODE
 70
     0
  9
$REGENMODE
 70
     1
  9
$FILLMODE
 70
     1
  9
$QTEXTMODE
 70
     0
  9
$MIRRTEXT
 70
     1
  9
$LTSCALE
 40
1.0
  9
$ATTMODE
 70
     1
  9
$TEXTSIZE
 40
3.175
  9
$TRACEWID
 40
1.0
  9
$TEXTSTYLE
  7
Standard
  9
$CLAYER
  8
0
  9
$CELTYPE
  6
ByLayer
  9
$CECOLOR
 62
   256
  9
$CELTSCALE
 40
1.0
  9
$DISPSILH
 70
     0
  9
$DIMSCALE
 40
1.0
  9
$DIMASZ
 40
3.302
  9
$DIMEXO
 40
0.0
  9
$DIMDLI
 40
3.75
  9
$DIMRND
 40
0.0
  9
$DIMDLE
 40
0.0
  9
$DIMEXE
 40
3.175
  9
$DIMTP
 40
0.0
  9
$DIMTM
 40
0.0
  9
$DIMTXT
 40
3.175
  9
$DIMCEN
 40
2.5
  9
$DIMTSZ
 40
0.0
  9
$DIMTOL
 70
     0
  9
$DIMLIM
 70
     0
  9
$DIMTIH
 70
     1
  9
$DIMTOH
 70
     1
  9
$DIMSE1
 70
     0
  9
$DIMSE2
 70
     0
  9
$DIMTAD
 70
     0
  9
$DIMZIN
 70
     1
  9
$DIMBLK
  1

  9
$DIMASO
 70
     1
  9
$DIMSHO
 70
     1
  9
$DIMPOST
  1

  9
$DIMAPOST
  1

  9
$DIMALT
 70
     0
  9
$DIMALTD
 70
     3
  9
$DIMALTF
 40
0.0393700787
  9
$DIMLFAC
 40
1.0
  9
$DIMTOFL
 70
     1
  9
$DIMTVP
 40
0.0
  9
$DIMTIX
 70
     0
  9
$DIMSOXD
 70
     0
  9
$DIMSAH
 70
     0
  9
$DIMBLK1
  1

  9
$DIMBLK2
  1

  9
$DIMSTYLE
  2
ISO-25
  9
$DIMCLRD
 70
     0
  9
$DIMCLRE
 70
     0
  9
$DIMCLRT
 70
     0
  9
$DIMTFAC
 40
1.0
  9
$DIMGAP
 40
1.524
  9
$DIMJUST
 70
     0
  9
$DIMSD1
 70
     0
  9
$DIMSD2
 70
     0
  9
$DIMTOLJ
 70
     0
  9
$DIMTZIN
 70
     1
  9
$DIMALTZ
 70
     0
  9
$DIMALTTZ
 70
     0
  9
$DIMUPT
 70
     0
  9
$DIMDEC
 70
     2
  9
$DIMTDEC
 70
     2
  9
$DIMALTU
 70
     2
  9
$DIMALTTD
 70
     3
  9
$DIMTXSTY
  7
Standard
  9
$DIMAUNIT
 70
     0
  9
$DIMADEC
 70
     2
  9
$DIMALTRND
 40
0.0
  9
$DIMAZIN
 70
     0
  9
$DIMDSEP
 70
    44
  9
$DIMATFIT
 70
     3
  9
$DIMFRAC
 70
     0
  9
$DIMLDRBLK
  1

  9
$DIMLUNIT
 70
     2
  9
$DIMLWD
 70
    -2
  9
$DIMLWE
 70
    -2
  9
$DIMTMOVE
 70
     0
  9
$LUNITS
 70
     2
  9
$LUPREC
 70
     5
  9
$SKETCHINC
 40
1.0
  9
$FILLETRAD
 40
10.0
  9
$AUNITS
 70
     0
  9
$AUPREC
 70
     2
  9
$MENU
  1
.
  9
$ELEVATION
 40
0.0
  9
$PELEVATION
 40
0.0
  9
$THICKNESS
 40
0.0
  9
$LIMCHECK
 70
     0
  9
$CHAMFERA
 40
0.0
  9
$CHAMFERB
 40
0.0
  9
$CHAMFERC
 40
0.0
  9
$CHAMFERD
 40
0.0
  9
$SKPOLY
 70
     0
  9
$TDCREATE
 40
2460131.492233588
  9
$TDUCREATE
 40
2460131.658900254
  9
$TDUPDATE
 40
2460131.492319283
  9
$TDUUPDATE
 40
2460131.658985949
  9
$TDINDWG
 40
0.0000000116
  9
$TDUSRTIMER
 40
0.0000000116
  9
$USRTIMER
 70
     1
  9
$ANGBASE
 50
0.0
  9
$ANGDIR
 70
     0
  9
$PDMODE
 70
     0
  9
$PDSIZE
 40
-1.0
  9
$PLINEWID
 40
0.0
  9
$SPLFRAME
 70
     0
  9
$SPLINETYPE
 70
     6
  9
$SPLINESEGS
 70
     8
  9
$HANDSEED
  5
9A
  9
$SURFTAB1
 70
     6
  9
$SURFTAB2
 70
     6
  9
$SURFTYPE
 70
     6
  9
$SURFU
 70
     6
  9
$SURFV
 70
     6
  9
$UCSBASE
  2

  9
$UCSNAME
  2

  9
$UCSORG
 10
0.0
 20
0.0
 30
0.0
  9
$UCSXDIR
 10
1.0
 20
0.0
 30
0.0
  9
$UCSYDIR
 10
0.0
 20
1.0
 30
0.0
  9
$UCSORTHOREF
  2

  9
$UCSORTHOVIEW
 70
     0
  9
$UCSORGTOP
 10
0.0
 20
0.0
 30
0.0
  9
$UCSORGBOTTOM
 10
0.0
 20
0.0
 30
0.0
  9
$UCSORGLEFT
 10
0.0
 20
0.0
 30
0.0
  9
$UCSORGRIGHT
 10
0.0
 20
0.0
 30
0.0
  9
$UCSORGFRONT
 10
0.0
 20
0.0
 30
0.0
  9
$UCSORGBACK
 10
0.0
 20
0.0
 30
0.0
  9
$PUCSBASE
  2

  9
$PUCSNAME
  2

  9
$PUCSORG
 10
0.0
 20
0.0
 30
0.0
  9
$PUCSXDIR
 10
1.0
 20
0.0
 30
0.0
  9
$PUCSYDIR
 10
0.0
 20
1.0
 30
0.0
  9
$PUCSORTHOREF
  2

  9
$PUCSORTHOVIEW
 70
     0
  9
$PUCSORGTOP
 10
0.0
 20
0.0
 30
0.0
  9
$PUCSORGBOTTOM
 10
0.0
 20
0.0
 30
0.0
  9
$PUCSORGLEFT
 10
0.0
 20
0.0
 30
0.0
  9
$PUCSORGRIGHT
 10
0.0
 20
0.0
 30
0.0
  9
$PUCSORGFRONT
 10
0.0
 20
0.0
 30
0.0
  9
$PUCSORGBACK
 10
0.0
 20
0.0
 30
0.0
  9
$USERI1
 70
     0
  9
$USERI2
 70
     0
  9
$USERI3
 70
     0
  9
$USERI4
 70
     0
  9
$USERI5
 70
     0
  9
$USERR1
 40
0.0
  9
$USERR2
 40
0.0
  9
$USERR3
 40
0.0
  9
$USERR4
 40
0.0
  9
$USERR5
 40
0.0
  9
$WORLDVIEW
 70
     1
  9
$SHADEDGE
 70
     3
  9
$SHADEDIF
 70
    70
  9
$TILEMODE
 70
     1
  9
$MAXACTVP
 70
    64
  9
$PINSBASE
 10
0.0
 20
0.0
 30
0.0
  9
$PLIMCHECK
 70
     0
  9
$PEXTMIN
 10
1.0000000000E+20
 20
1.0000000000E+20
 30
1.0000000000E+20
  9
$PEXTMAX
 10
-1.0000000000E+20
 20
-1.0000000000E+20
 30
-1.0000000000E+20
  9
$PLIMMIN
 10
0.0
 20
0.0
  9
$PLIMMAX
 10
420.0
 20
297.0
  9
$UNITMODE
 70
     0
  9
$VISRETAIN
 70
     1
  9
$PLINEGEN
 70
     0
  9
$PSLTSCALE
 70
     1
  9
$TREEDEPTH
 70
  3020
  9
$CMLSTYLE
  2
Standard
  9
$CMLJUST
 70
     0
  9
$CMLSCALE
 40
20.0
  9
$PROXYGRAPHICS
 70
     1
  9
$MEASUREMENT
 70
     1
  9
$CELWEIGHT
370
    -1
  9
$ENDCAPS
280
     0
  9
$JOINSTYLE
280
     0
  9
$LWDISPLAY
290
     1
  9
$INSUNITS
 70
     4
  9
$HYPERLINKBASE
  1

  9
$STYLESHEET
  1

  9
$XEDIT
290
     1
  9
$CEPSNTYPE
380
     0
  9
$PSTYLEMODE
290
     1
  9
$FINGERPRINTGUID
  2
{6b1a2558-9451-4650-9757-27c96b8887eb}
  9
$VERSIONGUID
  2
{FAEB1C32-E019-11D5-929B-00C0DF256EC4}
  9
$EXTNAMES
290
     1
  9
$PSVPSCALE
 40
0.0
  9
$OLESTARTUP
290
     0
  0
ENDSEC
  0
SECTION
  2
CLASSES
  0
CLASS
  1
ACDBDICTIONARYWDFLT
  2
AcDbDictionaryWithDefault
  3
ObjectDBX Classes
 90
        0
280
     0
281
     0
  0
CLASS
  1
VISUALSTYLE
  2
AcDbVisualStyle
  3
ObjectDBX Classes
 90
     4095
280
     0
281
     0
  0
CLASS
  1
MATERIAL
  2
AcDbMaterial
  3
ObjectDBX Classes
 90
     1153
280
     0
281
     0
  0
CLASS
  1
SCALE
  2
AcDbScale
  3
ObjectDBX Classes
 90
     1153
280
     0
281
     0
  0
CLASS
  1
TABLESTYLE
  2
AcDbTableStyle
  3
ObjectDBX Classes
 90
     4095
280
     0
281
     0
  0
CLASS
  1
MLEADERSTYLE
  2
AcDbMLeaderStyle
  3
ACDB_MLEADERSTYLE_CLASS
 90
     4095
280
     0
281
     0
  0
CLASS
  1
SUN
  2
AcDbSun
  3
SCENEOE
 90
     1153
280
     0
281
     0
  0
CLASS
  1
ACDBPLACEHOLDER
  2
AcDbPlaceHolder
  3
ObjectDBX Classes
 90
        0
280
     0
281
     0
  0
CLASS
  1
LAYOUT
  2
AcDbLayout
  3
ObjectDBX Classes
 90
        0
280
     0
281
     0
  0
ENDSEC
  0
SECTION
  2
TABLES
  0
TABLE
  2
VPORT
  5
8
330
0
100
AcDbSymbolTable
 70
     1
  0
VPORT
  5
29
330
8
100
AcDbSymbolTableRecord
100
AcDbViewportTableRecord
  2
*Active
 70
     0
 10
0.0
 20
0.0
 11
1.0
 21
1.0
 12
19.0157092559
 22
-7.2394877905
 13
0.0
 23
0.0
 14
10.0
 24
10.0
 15
10.0
 25
10.0
 16
0.0
 26
0.0
 36
1.0
 17
0.0
 27
0.0
 37
0.0
 40
117.9233503717
 41
0.8136116533
 42
50.0
 43
0.0
 44
0.0
 50
0.0
 51
0.0
 71
     0
 72
   100
 73
     1
 74
     3
 75
     0
 76
     0
 77
     0
 78
     0
281
     0
 65
     1
110
0.0
120
0.0
130
0.0
111
1.0
121
0.0
131
0.0
112
0.0
122
1.0
132
0.0
 79
     0
146
0.0
  0
ENDTAB
  0
TABLE
  2
LTYPE
  5
5
330
0
100
AcDbSymbolTable
 70
     6
  0
LTYPE
  5
14
330
5
100
AcDbSymbolTableRecord
100
AcDbLinetypeTableRecord
  2
ByBlock
 70
     0
  3

 72
    65
 73
     0
 40
0.0
  0
LTYPE
  5
15
330
5
100
AcDbSymbolTableRecord
100
AcDbLinetypeTableRecord
  2
ByLayer
 70
     0
  3

 72
    65
 73
     0
 40
0.0
  0
LTYPE
  5
16
330
5
100
AcDbSymbolTableRecord
100
AcDbLinetypeTableRecord
  2
Continuous
 70
     0
  3
Solid line
 72
    65
 73
     0
 40
0.0
  0
LTYPE
  5
6E
330
5
100
AcDbSymbolTableRecord
100
AcDbLinetypeTableRecord
  2
HIDDEN
 70
     0
  3
Hidden __ __ __ __ __ __ __ __ __ __ __ __ __ __
 72
    65
 73
     2
 40
1.905
 49
1.27
 74
     0
 49
-0.635
 74
     0
  0
LTYPE
  5
6F
330
5
100
AcDbSymbolTableRecord
100
AcDbLinetypeTableRecord
  2
PHANTOM
 70
     0
  3
Phantom ______  __  __  ______  __  __  ______
 72
    65
 73
     6
 40
12.7
 49
6.35
 74
     0
 49
-1.27
 74
     0
 49
1.27
 74
     0
 49
-1.27
 74
     0
 49
1.27
 74
     0
 49
-1.27
 74
     0
  0
LTYPE
  5
70
330
5
100
AcDbSymbolTableRecord
100
AcDbLinetypeTableRecord
  2
CENTER
 70
     0
  3
Center ____ _ ____ _ ____ _ ____ _ ____ _ ____
 72
    65
 73
     4
 40
10.16
 49
6.35
 74
     0
 49
-1.27
 74
     0
 49
1.27
 74
     0
 49
-1.27
 74
     0
  0
LTYPE
  5
71
330
5
100
AcDbSymbolTableRecord
100
AcDbLinetypeTableRecord
  2
CENTERX2
 70
     0
  3
Center (2x) ________  __  ________  __  _____
 72
    65
 73
     4
 40
20.32
 49
12.7
 74
     0
 49
-2.54
 74
     0
 49
2.54
 74
     0
 49
-2.54
 74
     0
  0
LTYPE
  5
72
330
5
100
AcDbSymbolTableRecord
100
AcDbLinetypeTableRecord
  2
DOT2
 70
     0
  3
Dot (.5x) ........................................
 72
    65
 73
     2
 40
0.635
 49
0.0
 74
     0
 49
-0.635
 74
     0
  0
ENDTAB
  0
TABLE
  2
LAYER
  5
2
330
0
100
AcDbSymbolTable
 70
     1
  0
LAYER
  5
10
330
2
100
AcDbSymbolTableRecord
100
AcDbLayerTableRecord
  2
0
 70
     0
 62
     7
  6
Continuous
370
    -3
390
F
  0
ENDTAB
  0
TABLE
  2
STYLE
  5
3
330
0
100
AcDbSymbolTable
 70
     1
  0
STYLE
  5
11
330
3
100
AcDbSymbolTableRecord
100
AcDbTextStyleTableRecord
  2
Standard
 70
     0
 40
0.0
 41
1.0
 50
0.0
 71
     0
 42
3.175
  3
txt
  4

  0
ENDTAB
  0
TABLE
  2
VIEW
  5
6
330
0
100
AcDbSymbolTable
 70
     0
  0
ENDTAB
  0
TABLE
  2
UCS
  5
7
330
0
100
AcDbSymbolTable
 70
     0
  0
ENDTAB
  0
TABLE
  2
APPID
  5
9
330
0
100
AcDbSymbolTable
 70
     1
  0
APPID
  5
12
330
9
100
AcDbSymbolTableRecord
100
AcDbRegAppTableRecord
  2
ACAD
 70
     0
  0
ENDTAB
  0
TABLE
  2
DIMSTYLE
  5
A
330
0
100
AcDbSymbolTable
 70
     1
100
AcDbDimStyleTable
  0
DIMSTYLE
105
27
330
A
100
AcDbSymbolTableRecord
100
AcDbDimStyleTableRecord
  2
ISO-25
 70
     0
 41
2.5
 42
0.625
 43
3.75
 44
1.25
 73
     0
 74
     0
 77
     1
 78
     8
140
2.5
141
2.5
143
0.0393700787
147
0.625
171
     3
172
     1
178
     0
271
     2
272
     2
274
     3
278
    44
283
     0
284
     8
340
11
  0
ENDTAB
  0
TABLE
  2
BLOCK_RECORD
  5
1
330
0
100
AcDbSymbolTable
 70
     1
  0
BLOCK_RECORD
  5
1F
330
1
100
AcDbSymbolTableRecord
100
AcDbBlockTableRecord
  2
*Model_Space
340
22
  0
BLOCK_RECORD
  5
1B
330
1
100
AcDbSymbolTableRecord
100
AcDbBlockTableRecord
  2
*Paper_Space
340
1E
  0
BLOCK_RECORD
  5
23
330
1
100
AcDbSymbolTableRecord
100
AcDbBlockTableRecord
  2
*Paper_Space0
340
26
  0
ENDTAB
  0
ENDSEC
  0
SECTION
  2
BLOCKS
  0
BLOCK
  5
20
330
1F
100
AcDbEntity
  8
0
100
AcDbBlockBegin
  2
*Model_Space
 70
     0
 10
0.0
 20
0.0
 30
0.0
  3
*Model_Space
  1

  0
ENDBLK
  5
21
330
1F
100
AcDbEntity
  8
0
100
AcDbBlockEnd
  0
BLOCK
  5
1C
330
1B
100
AcDbEntity
 67
     1
  8
0
100
AcDbBlockBegin
  2
*Paper_Space
 70
     0
 10
0.0
 20
0.0
 30
0.0
  3
*Paper_Space
  1

  0
ENDBLK
  5
1D
330
1B
100
AcDbEntity
 67
     1
  8
0
100
AcDbBlockEnd
  0
BLOCK
  5
24
330
23
100
AcDbEntity
  8
0
100
AcDbBlockBegin
  2
*Paper_Space0
 70
     0
 10
0.0
 20
0.0
 30
0.0
  3
*Paper_Space0
  1

  0
ENDBLK
  5
25
330
23
100
AcDbEntity
  8
0
100
AcDbBlockEnd
  0
ENDSEC
  0
SECTION
  2
ENTITIES
  0
LWPOLYLINE
  5
73
330
1F
100
AcDbEntity
  8
0
  6
Continuous
 62
     7
370
    25
100
AcDbPolyline
 90
       55
 70
   128
 43
0.0
 10
6.7503512602
 20
-0.5012134582
 10
7.0591222085
 20
0.436944456
 10
7.2985892484
 20
1.4375759577
 10
7.4675477343
 20
2.4956473417
 10
7.5651477156
 20
3.6058359502
 10
7.590898213
 20
4.7625569481
 10
7.5446696879
 20
5.9599914176
 10
7.426694694
 20
7.1921156309
 10
7.2375667081
 20
8.4527313525
 10
6.9782371437
 20
9.7354970193
 10
6.6500105655
 20
11.0339596424
 10
6.2545381266
 20
12.341587269
 10
5.7938092623
 20
13.6518018414
 10
5.2701416821
 20
14.9580122883
 10
4.6861697105
 20
16.2536476811
 10
4.0448310351
 20
17.5321902894
 10
3.3493519281
 20
18.7872083686
 10
2.6032310169
 20
20.0123885148
 10
1.8102216836
 20
21.2015674246
 10
0.9743131842
 20
22.3487629001
 10
0.0997105799
 20
23.448203942
 10
-0.8091864162
 20
24.4943597812
 10
-1.7478055721
 20
25.4819677011
 10
-2.7114251376
 20
26.4060595123
 10
-3.6951975974
 20
27.2619865449
 10
-4.6941740563
 20
28.0454430336
 10
-5.7033291351
 20
28.7524877787
 10
-6.7175862506
 20
29.3795639714
 10
-7.7318431538
 20
29.9235170874
 10
-8.7409975968
 20
30.3816107552
 10
-9.7399729996
 20
30.7515405215
 10
-10.7237439884
 20
31.0314454444
 10
-11.6873616753
 20
31.2199174541
 10
-12.6259785544
 20
31.316008437
 10
-13.534872887
 20
31.3192350046
 10
-14.4094724545
 20
31.2295809255
 10
-15.2453775592
 20
31.0474972073
 10
-16.0383831568
 20
30.773899827
 10
-16.7845000102
 20
30.4101651241
 10
-17.4799747577
 20
29.9581228763
 10
-18.1213087937
 20
29.4200470949
 10
-18.7052758695
 20
28.7986445851
 10
-19.2289383221
 20
28.09704133
 10
-19.6896618527
 20
27.3187667645
 10
-20.0851287788
 20
26.4677360207
 10
-20.4133496926
 20
25.5482302329
 10
-20.6726734698
 20
24.5648750007
 10
-20.8617955746
 20
23.5226171206
 10
-20.979764623
 20
22.4266997
 10
-21.0259871684
 20
21.2826357827
 10
-21.0002306869
 20
20.0961806143
 10
-20.9026247473
 20
18.873302691
 10
-20.733660359
 20
17.6201537349
 10
-20.4941875021
 20
16.343037747
 10
-20.1854108516
 20
15.0483792954
  0
LWPOLYLINE
  5
74
330
1F
100
AcDbEntity
  8
0
  6
Continuous
 62
     7
370
    25
100
AcDbPolyline
 90
       54
 70
   128
 43
0.0
 10
-20.1854108516
 20
15.0483792954
 10
-20.4930889815
 20
14.0915567407
 10
-20.7292090059
 20
13.0707803501
 10
-20.8925443841
 20
11.9913526124
 10
-20.9822466599
 20
10.8588806848
 10
-20.997849869
 20
9.6792472659
 10
-20.9392729595
 20
8.4585800378
 10
-20.806820213
 20
7.2032198353
 10
-20.6011796639
 20
5.9196877081
 10
-20.3234195252
 20
4.6146510469
 10
-19.97498264
 20
3.2948889488
 10
-19.5576789862
 20
1.9672570034
 10
-19.0736762746
 20
0.6386516807
 10
-18.5254886885
 20
-0.684025493
 10
-17.9159638239
 20
-1.9939037858
 10
-17.2482678969
 20
-3.2841789502
 10
-16.5258692973
 20
-4.5481485683
 10
-15.7525205713
 20
-5.7792468684
 10
-14.9322389288
 20
-6.9710788307
 10
-14.0692853759
 20
-8.1174534071
 10
-13.1681425805
 20
-9.2124156808
 10
-12.2334915872
 20
-10.2502777993
 10
-11.2701875009
 20
-11.2256485209
 10
-10.2832342671
 20
-12.1334612194
 10
-9.277758678
 20
-12.9690002029
 10
-8.2589837416
 20
-13.7279252102
 10
-7.2322015501
 20
-14.4062939563
 10
-6.2027457901
 20
-15.0005826109
 10
-5.175964036
 20
-15.5077041032
 10
-4.157189972
 20
-15.9250241577
 10
-3.1517156858
 20
-16.2503749786
 10
-2.1647641786
 20
-16.4820665099
 10
-1.2014622338
 20
-16.618895215
 10
-0.2668137857
 20
-16.6601503284
 10
0.6343260741
 20
-16.6056175476
 10
1.4972763162
 20
-16.4555801468
 10
2.3175542898
 20
-16.2108175049
 10
3.0908990081
 20
-15.8726010573
 10
3.8132932818
 20
-15.4426876912
 10
4.4809845872
 20
-14.9233106194
 10
5.0905045587
 20
-14.3171677795
 10
5.6386870053
 20
-13.6274078199
 10
6.122684358
 20
-12.8576137431
 10
6.5399824612
 20
-12.0117842943
 10
6.8884136328
 20
-11.0943131893
 10
7.1661679248
 20
-10.1099662909
 10
7.3718025244
 20
-9.0638568527
 10
7.5042492495
 20
-7.961418958
 10
7.5628200969
 20
-6.8083792915
 10
7.5472108166
 20
-5.6107273923
 10
7.4575024921
 20
-4.3746845407
 10
7.2941611189
 20
-3.1066714411
 10
7.0580351845
 20
-1.8132748696
 10
6.7503512602
 20
-0.5012134582
  0
LWPOLYLINE
  5
79
330
1F
100
AcDbEntity
  8
0
  6
Continuous
 62
     7
370
    25
100
AcDbPolyline
 90
       54
 70
   128
 43
0.0
 10
27.7455333456
 20
-12.6214740891
 10
27.4378494214
 20
-13.5782912031
 10
27.201723487
 20
-14.5990625738
 10
27.0383821138
 20
-15.6784857382
 10
26.9486737892
 20
-16.8109535629
 10
26.933064509
 20
-17.9905833707
 10
26.9916353564
 20
-19.2112474982
 10
27.1240820814
 20
-20.4666051267
 10
27.329716681
 20
-21.7501352199
 10
27.607470973
 20
-23.0551703977
 10
27.9559021447
 20
-24.3749315707
 10
28.3732002479
 20
-25.7025631539
 10
28.8571976005
 20
-27.0311686794
 10
29.4053800472
 20
-28.35384662
 10
30.0149000187
 20
-29.6637262394
 10
30.6825913241
 20
-30.9540032834
 10
31.4049855978
 20
-32.2179753245
 10
32.178330316
 20
-33.4490765782
 10
32.9986082897
 20
-34.6409120094
 10
33.8615585318
 20
-35.7872905521
 10
34.7626983915
 20
-36.8822572687
 10
35.6973468397
 20
-37.9201242838
 10
36.6606487845
 20
-38.8955003302
 10
37.6476002917
 20
-39.8033187539
 10
38.6530745778
 20
-40.6388638335
 10
39.6718486418
 20
-41.397795276
 10
40.6986303959
 20
-42.076170763
 10
41.728086156
 20
-42.6704664292
 10
42.7548683474
 20
-43.1775951673
 10
43.7736432838
 20
-43.5949226643
 10
44.7791188729
 20
-43.9202810856
 10
45.7660721068
 20
-44.1519803358
 10
46.7293761931
 20
-44.2888168382
 10
47.6640271864
 20
-44.3300797867
 10
48.5651699818
 20
-44.2755548383
 10
49.4281235347
 20
-44.1255252263
 10
50.2484051772
 20
-43.8807702893
 10
51.0217539032
 20
-43.5425614226
 10
51.7441525028
 20
-43.1126554739
 10
52.4118484297
 20
-42.5932856177
 10
53.0213732944
 20
-41.9871497541
 10
53.5695608805
 20
-41.297396495
 10
54.0535635921
 20
-40.5276088084
 10
54.4708672459
 20
-39.6817854062
 10
54.8193041311
 20
-38.7643199726
 10
55.0970642698
 20
-37.7799783412
 10
55.3027048189
 20
-36.7338737383
 10
55.4351575654
 20
-35.6314402217
 10
55.4937344748
 20
-34.4784044537
 10
55.4781312657
 20
-33.280755953
 10
55.3884289899
 20
-32.0447159823
 10
55.2250936118
 20
-30.7767052311
 10
54.9889735873
 20
-29.4833104631
 10
54.6812954574
 20
-28.1712503011
  0
LWPOLYLINE
  5
7A
330
1F
100
AcDbEntity
  8
0
  6
Continuous
 62
     7
370
    25
100
AcDbPolyline
 90
       55
 70
   128
 43
0.0
 10
54.6812954574
 20
-28.1712503011
 10
54.990072108
 20
-27.2330977817
 10
55.2295449648
 20
-26.2324712692
 10
55.3985093532
 20
-25.1744044433
 10
55.4961152928
 20
-24.0642199392
 10
55.5218717742
 20
-22.9075025713
 10
55.4756492288
 20
-21.710071239
 10
55.3576801804
 20
-20.4779496544
 10
55.1685580756
 20
-19.2173360399
 10
54.9092342985
 20
-17.9345719477
 10
54.5810133846
 20
-16.636110359
 10
54.1855464586
 20
-15.3284832214
 10
53.7248229279
 20
-14.01826859
 10
53.2011604754
 20
-12.7120575366
 10
52.6171933996
 20
-11.4164209927
 10
51.9758593635
 20
-10.1378766945
 10
51.2803846161
 20
-8.8828563952
 10
50.5342677626
 20
-7.6576735097
 10
49.7412621651
 20
-6.4684913553
 10
48.9053570604
 20
-5.3212921462
 10
48.0307574928
 20
-4.2218469005
 10
47.1218631602
 20
-3.1756864085
 10
46.1832462811
 20
-2.18807341
 10
45.2196285942
 20
-1.2639761202
 10
44.2358576055
 20
-0.4080432364
 10
43.2368822027
 20
0.3754194467
 10
42.2277277597
 20
1.082470698
 10
41.2134708564
 20
1.7095536763
 10
40.1992137409
 20
2.2535138229
 10
39.1900586622
 20
2.7116147309
 10
38.1910822033
 20
3.081551911
 10
37.2073097435
 20
3.3614643835
 10
36.2436901779
 20
3.5499440409
 10
35.305071022
 20
3.646042731
 10
34.396174026
 20
3.6492770267
 10
33.5215714217
 20
3.5596306576
 10
32.6856629222
 20
3.3775545924
 10
31.892653589
 20
3.1039647698
 10
31.1465326777
 20
2.7402374913
 10
30.4510535707
 20
2.288202497
 10
29.8097148953
 20
1.7501337619
 10
29.2257429238
 20
1.1287380559
 10
28.7020753436
 20
0.4271413275
 10
28.2413464793
 20
-0.351127021
 10
27.8458740404
 20
-1.2021518887
 10
27.5176474622
 20
-2.1216521711
 10
27.2583178978
 20
-3.1050022961
 10
27.0691899118
 20
-4.147255493
 10
26.951214918
 20
-5.2431686778
 10
26.9049863928
 20
-6.3872288283
 10
26.9307368902
 20
-7.5736807175
 10
27.0283368716
 20
-8.7965558659
 10
27.1972953574
 20
-10.0497025654
 10
27.4367623973
 20
-11.3268168263
 10
27.7455333456
 20
-12.6214740891
  0
LWPOLYLINE
  5
7B
330
1F
100
AcDbEntity
  8
0
  6
Continuous
 62
     7
370
    25
100
AcDbPolyline
 90
       24
 70
   128
 43
0.0
 10
-19.1112468495
 20
34.3044053746
 10
-19.1498762714
 20
34.6512517351
 10
-19.2628995694
 20
35.0169746687
 10
-19.4419343226
 20
35.3744501788
 10
-19.6737023425
 20
35.6971659419
 10
-19.9410144552
 20
35.9611876064
 10
-20.2240453442
 20
36.1469338931
 10
-20.5018039032
 20
36.2406288497
 10
-20.7536900507
 20
36.2353235499
 10
-20.9610225433
 20
36.1314114635
 10
-21.1084244785
 20
35.9365992747
 10
-21.1849637291
 20
35.6653353121
 10
-21.1849637291
 20
35.3377379831
 10
-21.1084244785
 20
34.9781036828
 10
-20.9610225433
 20
34.613104842
 10
-20.7536900507
 20
34.2698117551
 10
-20.5018039032
 20
33.9736848997
 10
-20.2240453442
 20
33.7466866502
 10
-19.9410144552
 20
33.6056524282
 10
-19.6737023425
 20
33.5610420968
 10
-19.4419343226
 20
33.6161642001
 10
-19.2628995694
 20
33.7669305839
 10
-19.1498762714
 20
34.0021595954
 10
-19.1112468495
 20
34.3044053746
  0
LWPOLYLINE
  5
7C
330
1F
100
AcDbEntity
  8
0
  6
Continuous
 62
     7
370
    25
100
AcDbPolyline
 90
       24
 70
   128
 43
0.0
 10
55.6903368088
 20
-52.0272389852
 10
55.651707387
 20
-51.6803926248
 10
55.5386840889
 20
-51.3146696911
 10
55.3596493357
 20
-50.957194181
 10
55.1278813158
 20
-50.6344784179
 10
54.8605692031
 20
-50.3704567534
 10
54.5775383141
 20
-50.1847104667
 10
54.2997797551
 20
-50.0910155101
 10
54.0478936076
 20
-50.0963208099
 10
53.8405611151
 20
-50.2002328963
 10
53.6931591798
 20
-50.3950450851
 10
53.6166199292
 20
-50.6663090477
 10
53.6166199292
 20
-50.9939063767
 10
53.6931591798
 20
-51.3535406771
 10
53.8405611151
 20
-51.7185395178
 10
54.0478936076
 20
-52.0618326047
 10
54.2997797551
 20
-52.3579594601
 10
54.5775383141
 20
-52.5849577096
 10
54.8605692031
 20
-52.7259919316
 10
55.1278813158
 20
-52.770602263
 10
55.3596493357
 20
-52.7154801597
 10
55.5386840889
 20
-52.5647137759
 10
55.651707387
 20
-52.3294847645
 10
55.6903368088
 20
-52.0272389852
  0
LWPOLYLINE
  5
7D
330
1F
100
AcDbEntity
  8
0
  6
Continuous
 62
     7
370
    25
100
AcDbPolyline
 90
       24
 70
   128
 43
0.0
 10
55.6898564985
 20
-8.8768620947
 10
55.6512270767
 20
-8.5300157343
 10
55.5382037786
 20
-8.1642928006
 10
55.3591690254
 20
-7.8068172905
 10
55.1274010055
 20
-7.4841015274
 10
54.8600888928
 20
-7.2200798629
 10
54.5770580038
 20
-7.0343335762
 10
54.2992994448
 20
-6.9406386196
 10
54.0474132973
 20
-6.9459439194
 10
53.8400808048
 20
-7.0498560058
 10
53.6926788695
 20
-7.2446681946
 10
53.6161396189
 20
-7.5159321572
 10
53.6161396189
 20
-7.8435294862
 10
53.6926788695
 20
-8.2031637866
 10
53.8400808048
 20
-8.5681626273
 10
54.0474132973
 20
-8.9114557143
 10
54.2992994448
 20
-9.2075825696
 10
54.5770580038
 20
-9.4345808191
 10
54.8600888928
 20
-9.5756150411
 10
55.1274010055
 20
-9.6202253726
 10
55.3591690254
 20
-9.5651032692
 10
55.5382037786
 20
-9.4143368854
 10
55.6512270767
 20
-9.179107874
 10
55.6898564985
 20
-8.8768620947
  0
LWPOLYLINE
  5
7E
330
1F
100
AcDbEntity
  8
0
  6
Continuous
 62
     7
370
    25
100
AcDbPolyline
 90
       24
 70
   128
 43
0.0
 10
28.8197988683
 20
6.6344931621
 10
28.7811694465
 20
6.9813395225
 10
28.6681461485
 20
7.3470624562
 10
28.4891113952
 20
7.7045379663
 10
28.2573433753
 20
8.0272537294
 10
27.9900312627
 20
8.2912753939
 10
27.7070003737
 20
8.4770216806
 10
27.4292418146
 20
8.5707166372
 10
27.1773556672
 20
8.5654113374
 10
26.9700231746
 20
8.461499251
 10
26.8226212394
 20
8.2666870622
 10
26.7460819887
 20
7.9954230996
 10
26.7460819887
 20
7.6678257706
 10
26.8226212394
 20
7.3081914703
 10
26.9700231746
 20
6.9431926295
 10
27.1773556672
 20
6.5998995426
 10
27.4292418146
 20
6.3037726872
 10
27.7070003737
 20
6.0767744377
 10
27.9900312627
 20
5.9357402157
 10
28.2573433753
 20
5.8911298843
 10
28.4891113952
 20
5.9462519876
 10
28.6681461485
 20
6.0970183714
 10
28.7811694465
 20
6.3322473829
 10
28.8197988683
 20
6.6344931621
  0
LWPOLYLINE
  5
7F
330
1F
100
AcDbEntity
  8
0
  6
Continuous
 62
     7
370
    25
100
AcDbPolyline
 90
       24
 70
   128
 43
0.0
 10
7.7588107782
 20
18.7932331302
 10
7.7201813563
 20
19.1400794906
 10
7.6071580583
 20
19.5058024243
 10
7.428123305
 20
19.8632779343
 10
7.1963552852
 20
20.1859936975
 10
6.9290431725
 20
20.4500153619
 10
6.6460122835
 20
20.6357616486
 10
6.3682537244
 20
20.7294566052
 10
6.116367577
 20
20.7241513055
 10
5.9090350844
 20
20.6202392191
 10
5.7616331492
 20
20.4254270302
 10
5.6850938985
 20
20.1541630677
 10
5.6850938985
 20
19.8265657386
 10
5.7616331492
 20
19.4669314383
 10
5.9090350844
 20
19.1019325975
 10
6.116367577
 20
18.7586395106
 10
6.3682537244
 20
18.4625126553
 10
6.6460122835
 20
18.2355144058
 10
6.9290431725
 20
18.0944801837
 10
7.1963552852
 20
18.0498698523
 10
7.428123305
 20
18.1049919556
 10
7.6071580583
 20
18.2557583395
 10
7.7201813563
 20
18.4909873509
 10
7.7588107782
 20
18.7932331302
  0
LWPOLYLINE
  5
80
330
1F
100
AcDbEntity
  8
0
  6
Continuous
 62
     7
370
    25
100
AcDbPolyline
 90
       24
 70
   128
 43
0.0
 10
-19.1105461429
 20
-8.8460987439
 10
-19.1491755647
 20
-8.4992523835
 10
-19.2621988627
 20
-8.1335294498
 10
-19.441233616
 20
-7.7760539398
 10
-19.6730016358
 20
-7.4533381766
 10
-19.9403137485
 20
-7.1893165122
 10
-20.2233446375
 20
-7.0035702255
 10
-20.5011031966
 20
-6.9098752689
 10
-20.752989344
 20
-6.9151805687
 10
-20.9603218366
 20
-7.019092655
 10
-21.1077237718
 20
-7.2139048439
 10
-21.1842630225
 20
-7.4851688064
 10
-21.1842630225
 20
-7.8127661355
 10
-21.1077237718
 20
-8.1724004358
 10
-20.9603218366
 20
-8.5373992766
 10
-20.752989344
 20
-8.8806923635
 10
-20.5011031966
 20
-9.1768192188
 10
-20.2233446375
 20
-9.4038174683
 10
-19.9403137485
 20
-9.5448516904
 10
-19.6730016358
 20
-9.5894620218
 10
-19.441233616
 20
-9.5343399185
 10
-19.2621988627
 20
-9.3835735346
 10
-19.1491755647
 20
-9.1483445232
 10
-19.1105461429
 20
-8.8460987439
  0
LWPOLYLINE
  5
81
330
1F
100
AcDbEntity
  8
0
  6
Continuous
 62
     7
370
    25
100
AcDbPolyline
 90
       24
 70
   128
 43
0.0
 10
7.7595114848
 20
-24.3572709884
 10
7.720882063
 20
-24.010424628
 10
7.6078587649
 20
-23.6447016943
 10
7.4288240117
 20
-23.2872261843
 10
7.1970559918
 20
-22.9645104211
 10
6.9297438791
 20
-22.7004887567
 10
6.6467129901
 20
-22.5147424699
 10
6.3689544311
 20
-22.4210475133
 10
6.1170682836
 20
-22.4263528131
 10
5.9097357911
 20
-22.5302648995
 10
5.7623338558
 20
-22.7250770884
 10
5.6857946052
 20
-22.9963410509
 10
5.6857946052
 20
-23.32393838
 10
5.7623338558
 20
-23.6835726803
 10
5.9097357911
 20
-24.048571521
 10
6.1170682836
 20
-24.391864608
 10
6.3689544311
 20
-24.6879914633
 10
6.6467129901
 20
-24.9149897128
 10
6.9297438791
 20
-25.0560239348
 10
7.1970559918
 20
-25.1006342663
 10
7.4288240117
 20
-25.0455121629
 10
7.6078587649
 20
-24.8947457791
 10
7.720882063
 20
-24.6595167677
 10
7.7595114848
 20
-24.3572709884
  0
LWPOLYLINE
  5
82
330
1F
100
AcDbEntity
  8
0
  6
Continuous
 62
     7
370
    25
100
AcDbPolyline
 90
       24
 70
   128
 43
0.0
 10
28.8202791786
 20
-36.5158837283
 10
28.7816497568
 20
-36.1690373679
 10
28.6686264588
 20
-35.8033144343
 10
28.4895917055
 20
-35.4458389242
 10
28.2578236856
 20
-35.1231231611
 10
27.990511573
 20
-34.8591014966
 10
27.707480684
 20
-34.6733552099
 10
27.4297221249
 20
-34.5796602533
 10
27.1778359775
 20
-34.5849655531
 10
26.9705034849
 20
-34.6888776394
 10
26.8231015497
 20
-34.8836898283
 10
26.746562299
 20
-35.1549537909
 10
26.746562299
 20
-35.4825511199
 10
26.8231015497
 20
-35.8421854202
 10
26.9705034849
 20
-36.207184261
 10
27.1778359775
 20
-36.5504773479
 10
27.4297221249
 20
-36.8466042032
 10
27.707480684
 20
-37.0736024528
 10
27.990511573
 20
-37.2146366748
 10
28.2578236856
 20
-37.2592470062
 10
28.4895917055
 20
-37.2041249029
 10
28.6686264588
 20
-37.0533585191
 10
28.7816497568
 20
-36.8181295076
 10
28.8202791786
 20
-36.5158837283
  0
LWPOLYLINE
  5
89
330
1F
100
AcDbEntity
  8
0
  6
Continuous
 62
     7
370
    25
100
AcDbPolyline
 90
       15
 70
   128
 43
0.0
 10
33.0194904409
 20
3.4624343878
 10
32.7612768297
 20
3.1697583354
 10
32.2376092495
 20
2.4681616071
 10
31.7768803852
 20
1.6898932586
 10
31.3814079463
 20
0.8388683908
 10
31.0531813681
 20
-0.0806318916
 10
30.7938518037
 20
-1.0639820165
 10
30.6047238178
 20
-2.1062352134
 10
30.4867488239
 20
-3.2021483982
 10
30.4405202988
 20
-4.3462085487
 10
30.4662707962
 20
-5.532660438
 10
30.5638707775
 20
-6.7555355864
 10
30.7328292634
 20
-8.0086822859
 10
30.9722963033
 20
-9.2857965467
 10
31.2810672516
 20
-10.5804538095
  0
LWPOLYLINE
  5
8A
330
1F
100
AcDbEntity
  8
0
  6
Continuous
 62
     7
370
    25
100
AcDbPolyline
 90
       36
 70
   128
 43
0.0
 10
31.2810672516
 20
-10.5804538095
 10
30.9733833273
 20
-11.5372709236
 10
30.7372573929
 20
-12.5580422942
 10
30.5739160197
 20
-13.6374654586
 10
30.4842076952
 20
-14.7699332834
 10
30.4685984149
 20
-15.9495630911
 10
30.5271692623
 20
-17.1702272186
 10
30.6596159874
 20
-18.4255848471
 10
30.865250587
 20
-19.7091149403
 10
31.1430048789
 20
-21.0141501182
 10
31.4914360506
 20
-22.3339112911
 10
31.9087341538
 20
-23.6615428744
 10
32.3927315065
 20
-24.9901483999
 10
32.9409139531
 20
-26.3128263404
 10
33.5504339246
 20
-27.6227059598
 10
34.21812523
 20
-28.9129830039
 10
34.9405195037
 20
-30.1769550449
 10
35.713864222
 20
-31.4080562986
 10
36.5341421956
 20
-32.5998917299
 10
37.3970924377
 20
-33.7462702725
 10
38.2982322975
 20
-34.8412369891
 10
39.2328807456
 20
-35.8791040042
 10
40.1961826904
 20
-36.8544800506
 10
41.1831341976
 20
-37.7622984743
 10
42.1886084838
 20
-38.5978435539
 10
43.2073825478
 20
-39.3567749964
 10
44.2341643019
 20
-40.0351504834
 10
45.2636200619
 20
-40.6294461496
 10
46.2904022533
 20
-41.1365748877
 10
47.3091771898
 20
-41.5539023848
 10
48.3146527789
 20
-41.8792608061
 10
49.3016060127
 20
-42.1109600563
 10
50.264910099
 20
-42.2477965587
 10
51.1995610923
 20
-42.2890595072
 10
52.1007038877
 20
-42.2345345587
 10
52.9244014282
 20
-42.0935985039
  0
LWPOLYLINE
  5
8C
330
1F
100
AcDbEntity
  8
0
  6
Continuous
 62
     7
370
    25
100
AcDbPolyline
 90
       15
 70
   128
 43
0.0
 10
-14.9114822685
 20
31.1323959613
 10
-15.1697419636
 20
30.8396648647
 10
-15.6934044161
 20
30.1380616096
 10
-16.1541279468
 20
29.3597870441
 10
-16.5495948728
 20
28.5087563003
 10
-16.8778157867
 20
27.5892505124
 10
-17.1371395638
 20
26.6058952803
 10
-17.3262616686
 20
25.5636374001
 10
-17.4442307171
 20
24.4677199796
 10
-17.4904532624
 20
23.3236560622
 10
-17.464696781
 20
22.1372008938
 10
-17.3670908414
 20
20.9143229706
 10
-17.1981264531
 20
19.6611740145
 10
-16.9586535962
 20
18.3840580266
 10
-16.6498769456
 20
17.089399575
  0
LWPOLYLINE
  5
8D
330
1F
100
AcDbEntity
  8
0
  6
Continuous
 62
     7
370
    25
100
AcDbPolyline
 90
       36
 70
   128
 43
0.0
 10
-16.6498769456
 20
17.089399575
 10
-16.9575550756
 20
16.1325770203
 10
-17.1936751
 20
15.1118006297
 10
-17.3570104781
 20
14.032372892
 10
-17.4467127539
 20
12.8999009644
 10
-17.462315963
 20
11.7202675455
 10
-17.4037390536
 20
10.4996003174
 10
-17.2712863071
 20
9.2442401149
 10
-17.065645758
 20
7.9607079877
 10
-16.7878856193
 20
6.6556713264
 10
-16.4394487341
 20
5.3359092283
 10
-16.0221450803
 20
4.008277283
 10
-15.5381423687
 20
2.6796719603
 10
-14.9899547826
 20
1.3569947865
 10
-14.3804299179
 20
0.0471164937
 10
-13.712733991
 20
-1.2431586706
 10
-12.9903353914
 20
-2.5071282888
 10
-12.2169866654
 20
-3.7382265889
 10
-11.3967050229
 20
-4.9300585512
 10
-10.53375147
 20
-6.0764331276
 10
-9.6326086746
 20
-7.1713954012
 10
-8.6979576813
 20
-8.2092575198
 10
-7.734653595
 20
-9.1846282414
 10
-6.7477003611
 20
-10.0924409398
 10
-5.742224772
 20
-10.9279799233
 10
-4.7234498356
 20
-11.6869049306
 10
-3.6966676442
 20
-12.3652736767
 10
-2.6672118842
 20
-12.9595623313
 10
-1.64043013
 20
-13.4666838236
 10
-0.621656066
 20
-13.8840038782
 10
0.3838182201
 20
-14.2093546991
 10
1.3707697273
 20
-14.4410462304
 10
2.3340716721
 20
-14.5778749355
 10
3.2687201202
 20
-14.6191300488
 10
4.16985998
 20
-14.5645972681
 10
4.993485291
 20
-14.4236695889
  0
LINE
  5
8E
330
1F
100
AcDbEntity
  8
0
  6
Continuous
 62
     7
370
    25
100
AcDbLine
 10
62.5114557717
 20
-65.0450516982
 30
0.0
 11
62.5114557717
 21
-3.735084425
 31
0.0
  0
LINE
  5
8F
330
1F
100
AcDbEntity
  8
0
  6
Continuous
 62
     7
370
    25
100
AcDbLine
 10
-28.0155711658
 20
-12.7849114355
 30
0.0
 11
62.5114557717
 21
-65.0450516982
 31
0.0
  0
LINE
  5
90
330
1F
100
AcDbEntity
  8
0
  6
Continuous
 62
     7
370
    25
100
AcDbLine
 10
-28.0155711658
 20
-12.7849114355
 30
0.0
 11
-28.0155711658
 21
48.5250558377
 31
0.0
  0
LINE
  5
91
330
1F
100
AcDbEntity
  8
0
  6
Continuous
 62
     7
370
    25
100
AcDbLine
 10
-28.0155711658
 20
48.5250558377
 30
0.0
 11
62.5114557717
 21
-3.735084425
 31
0.0
  0
LINE
  5
92
330
1F
100
AcDbEntity
  8
0
  6
Continuous
 62
     7
370
    25
100
AcDbLine
 10
62.5114557717
 20
-3.735084425
 30
0.0
 11
66.0469896776
 21
-1.6940641454
 31
0.0
  0
LINE
  5
93
330
1F
100
AcDbEntity
  8
0
  6
Continuous
 62
     7
370
    25
100
AcDbLine
 10
-28.0155711658
 20
48.5250558377
 30
0.0
 11
-24.4800372599
 21
50.5660761172
 31
0.0
  0
LINE
  5
94
330
1F
100
AcDbEntity
  8
0
  6
Continuous
 62
     7
370
    25
100
AcDbLine
 10
-24.4800372599
 20
50.5660761172
 30
0.0
 11
66.0469896776
 21
-1.6940641454
 31
0.0
  0
LINE
  5
95
330
1F
100
AcDbEntity
  8
0
  6
Continuous
 62
     7
370
    25
100
AcDbLine
 10
62.5114557717
 20
-65.0450516982
 30
0.0
 11
66.0469896776
 21
-63.0040314186
 31
0.0
  0
LINE
  5
96
330
1F
100
AcDbEntity
  8
0
  6
Continuous
 62
     7
370
    25
100
AcDbLine
 10
66.0469896776
 20
-63.0040314186
 30
0.0
 11
66.0469896776
 21
-1.6940641454
 31
0.0
  0
LINE
  5
97
330
1F
100
AcDbEntity
  8
0
  6
Continuous
 62
     7
370
    25
100
AcDbLine
 10
27.7455333456
 20
-12.6214740891
 30
0.0
 11
31.2810672516
 21
-10.5804538095
 31
0.0
  0
LINE
  5
98
330
1F
100
AcDbEntity
  8
0
  6
Continuous
 62
     7
370
    25
100
AcDbLine
 10
-20.1854108516
 20
15.0483792954
 30
0.0
 11
-16.6498769456
 21
17.089399575
 31
0.0
  0
ENDSEC
  0
SECTION
  2
OBJECTS
  0
DICTIONARY
  5
C
330
0
100
AcDbDictionary
281
     1
  3
ACAD_GROUP
350
D
  3
ACAD_LAYOUT
350
1A
  3
ACAD_MLINESTYLE
350
17
  3
ACAD_PLOTSETTINGS
350
19
  3
ACAD_PLOTSTYLENAME
350
E
  3
ACAD_SCALELIST
350
47
  3
DWGPROPS
350
99
  0
DICTIONARY
  5
D
102
{ACAD_REACTORS
330
C
102
}
330
C
100
AcDbDictionary
281
     1
  0
DICTIONARY
  5
1A
102
{ACAD_REACTORS
330
C
102
}
330
C
100
AcDbDictionary
281
     1
  3
Layout1
350
1E
  3
Layout2
350
26
  3
Model
350
22
  0
DICTIONARY
  5
17
102
{ACAD_REACTORS
330
C
102
}
330
C
100
AcDbDictionary
281
     1
  3
Standard
350
18
  0
DICTIONARY
  5
19
102
{ACAD_REACTORS
330
C
102
}
330
C
100
AcDbDictionary
281
     1
  0
ACDBDICTIONARYWDFLT
  5
E
102
{ACAD_REACTORS
330
C
102
}
330
C
100
AcDbDictionary
281
     1
  3
Normal
350
F
100
AcDbDictionaryWithDefault
340
F
  0
DICTIONARY
  5
47
102
{ACAD_REACTORS
330
C
102
}
330
C
100
AcDbDictionary
281
     1
  3
A0
350
48
  3
A1
350
49
  3
A2
350
4A
  3
A3
350
4B
  3
A4
350
4C
  3
A5
350
4D
  3
A6
350
4E
  3
A7
350
4F
  3
A8
350
50
  3
A9
350
51
  3
B0
350
52
  3
B1
350
53
  3
B2
350
54
  3
B3
350
55
  3
B4
350
56
  3
B5
350
57
  3
B6
350
58
  3
B7
350
59
  3
B8
350
5A
  3
B9
350
5B
  3
C0
350
5C
  3
C1
350
5D
  3
C2
350
5E
  3
C3
350
5F
  3
C4
350
60
  3
C5
350
61
  3
C6
350
62
  3
C7
350
63
  3
C8
350
64
  3
C9
350
65
  3
D0
350
66
  3
D1
350
67
  3
D2
350
68
  0
XRECORD
  5
99
102
{ACAD_REACTORS
330
C
102
}
330
C
100
AcDbXrecord
280
     1
  1
DWGPROPS COOKIE
  2

  3

  4

  6

  7

  8
duck7
  9

300
=
301
=
302
=
303
=
304
=
305
=
306
=
307
=
308
=
309
=
 40
0.0
 41
2460131.658900254
 42
2460131.658985949
  1

 90
        0
  0
LAYOUT
  5
1E
102
{ACAD_REACTORS
330
1A
102
}
330
1A
100
AcDbPlotSettings
  1

  2
none_device
  4

  6

 40
0.0
 41
0.0
 42
0.0
 43
0.0
 44
0.0
 45
0.0
 46
0.0
 47
0.0
 48
0.0
 49
0.0
140
0.0
141
0.0
142
1.0
143
1.0
 70
   688
 72
     1
 73
     0
 74
     5
  7

 75
    16
147
1.0
148
0.0
149
0.0
100
AcDbLayout
  1
Layout1
 70
     1
 71
     1
 10
0.0
 20
0.0
 11
420.0
 21
297.0
 12
0.0
 22
0.0
 32
0.0
 14
1.0000000000E+20
 24
1.0000000000E+20
 34
1.0000000000E+20
 15
-1.0000000000E+20
 25
-1.0000000000E+20
 35
-1.0000000000E+20
146
0.0
 13
0.0
 23
0.0
 33
0.0
 16
1.0
 26
0.0
 36
0.0
 17
0.0
 27
1.0
 37
0.0
 76
     0
330
1B
  0
LAYOUT
  5
26
102
{ACAD_REACTORS
330
1A
102
}
330
1A
100
AcDbPlotSettings
  1

  2
none_device
  4

  6

 40
0.0
 41
0.0
 42
0.0
 43
0.0
 44
0.0
 45
0.0
 46
0.0
 47
0.0
 48
0.0
 49
0.0
140
0.0
141
0.0
142
1.0
143
1.0
 70
   688
 72
     1
 73
     0
 74
     5
  7

 75
    16
147
1.0
148
0.0
149
0.0
100
AcDbLayout
  1
Layout2
 70
     1
 71
     2
 10
0.0
 20
0.0
 11
0.0
 21
0.0
 12
0.0
 22
0.0
 32
0.0
 14
0.0
 24
0.0
 34
0.0
 15
0.0
 25
0.0
 35
0.0
146
0.0
 13
0.0
 23
0.0
 33
0.0
 16
1.0
 26
0.0
 36
0.0
 17
0.0
 27
1.0
 37
0.0
 76
     0
330
23
  0
LAYOUT
  5
22
102
{ACAD_REACTORS
330
1A
102
}
330
1A
100
AcDbPlotSettings
  1

  2
none_device
  4
ANSI_A_(11.00_x_8.50_Inches)
  6

 40
6.35
 41
19.05
 42
6.35000508
 43
19.05000254
 44
279.4
 45
215.9
 46
98.1938945064
 47
102.2843103362
 48
0.0
 49
0.0
140
0.0
141
0.0
142
0.0727871111
143
1.0
 70
  1696
 72
     0
 73
     0
 74
     0
  7

 75
     0
147
0.0179189148
148
-1300.4909072572
149
0.0
100
AcDbLayout
  1
Model
 70
     1
 71
     0
 10
0.0
 20
0.0
 11
420.0
 21
297.0
 12
0.0
 22
0.0
 32
0.0
 14
-28.0155711658
 24
-65.0450516982
 34
0.0
 15
66.0469896776
 25
50.5660761172
 35
0.0
146
0.0
 13
0.0
 23
0.0
 33
0.0
 16
1.0
 26
0.0
 36
0.0
 17
0.0
 27
1.0
 37
0.0
 76
     0
330
1F
331
29
  0
MLINESTYLE
  5
18
102
{ACAD_REACTORS
330
17
102
}
330
17
100
AcDbMlineStyle
  2
Standard
 70
     0
  3

 62
   256
 51
90.0
 52
90.0
 71
     2
 49
0.5
 62
   256
  6
BYLAYER
 49
-0.5
 62
   256
  6
BYLAYER
  0
ACDBPLACEHOLDER
  5
F
102
{ACAD_REACTORS
330
E
102
}
330
E
  0
SCALE
  5
48
102
{ACAD_REACTORS
330
47
102
}
330
47
100
AcDbScale
 70
     0
300
1:1
140
1.0
141
1.0
290
     1
  0
SCALE
  5
49
102
{ACAD_REACTORS
330
47
102
}
330
47
100
AcDbScale
 70
     0
300
1:2
140
1.0
141
2.0
290
     0
  0
SCALE
  5
4A
102
{ACAD_REACTORS
330
47
102
}
330
47
100
AcDbScale
 70
     0
300
1:4
140
1.0
141
4.0
290
     0
  0
SCALE
  5
4B
102
{ACAD_REACTORS
330
47
102
}
330
47
100
AcDbScale
 70
     0
300
1:5
140
1.0
141
5.0
290
     0
  0
SCALE
  5
4C
102
{ACAD_REACTORS
330
47
102
}
330
47
100
AcDbScale
 70
     0
300
1:8
140
1.0
141
8.0
290
     0
  0
SCALE
  5
4D
102
{ACAD_REACTORS
330
47
102
}
330
47
100
AcDbScale
 70
     0
300
1:10
140
1.0
141
10.0
290
     0
  0
SCALE
  5
4E
102
{ACAD_REACTORS
330
47
102
}
330
47
100
AcDbScale
 70
     0
300
1:16
140
1.0
141
16.0
290
     0
  0
SCALE
  5
4F
102
{ACAD_REACTORS
330
47
102
}
330
47
100
AcDbScale
 70
     0
300
1:20
140
1.0
141
20.0
290
     0
  0
SCALE
  5
50
102
{ACAD_REACTORS
330
47
102
}
330
47
100
AcDbScale
 70
     0
300
1:30
140
1.0
141
30.0
290
     0
  0
SCALE
  5
51
102
{ACAD_REACTORS
330
47
102
}
330
47
100
AcDbScale
 70
     0
300
1:40
140
1.0
141
40.0
290
     0
  0
SCALE
  5
52
102
{ACAD_REACTORS
330
47
102
}
330
47
100
AcDbScale
 70
     0
300
1:50
140
1.0
141
50.0
290
     0
  0
SCALE
  5
53
102
{ACAD_REACTORS
330
47
102
}
330
47
100
AcDbScale
 70
     0
300
1:100
140
1.0
141
100.0
290
     0
  0
SCALE
  5
54
102
{ACAD_REACTORS
330
47
102
}
330
47
100
AcDbScale
 70
     0
300
2:1
140
2.0
141
1.0
290
     0
  0
SCALE
  5
55
102
{ACAD_REACTORS
330
47
102
}
330
47
100
AcDbScale
 70
     0
300
4:1
140
4.0
141
1.0
290
     0
  0
SCALE
  5
56
102
{ACAD_REACTORS
330
47
102
}
330
47
100
AcDbScale
 70
     0
300
8:1
140
8.0
141
1.0
290
     0
  0
SCALE
  5
57
102
{ACAD_REACTORS
330
47
102
}
330
47
100
AcDbScale
 70
     0
300
10:1
140
10.0
141
1.0
290
     0
  0
SCALE
  5
58
102
{ACAD_REACTORS
330
47
102
}
330
47
100
AcDbScale
 70
     0
300
100:1
140
100.0
141
1.0
290
     0
  0
SCALE
  5
59
102
{ACAD_REACTORS
330
47
102
}
330
47
100
AcDbScale
 70
     0
300
1/128" = 1'-0"
140
0.0078125
141
12.0
290
     0
  0
SCALE
  5
5A
102
{ACAD_REACTORS
330
47
102
}
330
47
100
AcDbScale
 70
     0
300
1/64" = 1'-0"
140
0.015625
141
12.0
290
     0
  0
SCALE
  5
5B
102
{ACAD_REACTORS
330
47
102
}
330
47
100
AcDbScale
 70
     0
300
1/32" = 1'-0"
140
0.03125
141
12.0
290
     0
  0
SCALE
  5
5C
102
{ACAD_REACTORS
330
47
102
}
330
47
100
AcDbScale
 70
     0
300
1/16" = 1'-0"
140
0.0625
141
12.0
290
     0
  0
SCALE
  5
5D
102
{ACAD_REACTORS
330
47
102
}
330
47
100
AcDbScale
 70
     0
300
3/32" = 1'-0"
140
0.09375
141
12.0
290
     0
  0
SCALE
  5
5E
102
{ACAD_REACTORS
330
47
102
}
330
47
100
AcDbScale
 70
     0
300
1/8" = 1'-0"
140
0.125
141
12.0
290
     0
  0
SCALE
  5
5F
102
{ACAD_REACTORS
330
47
102
}
330
47
100
AcDbScale
 70
     0
300
3/16" = 1'-0"
140
0.1875
141
12.0
290
     0
  0
SCALE
  5
60
102
{ACAD_REACTORS
330
47
102
}
330
47
100
AcDbScale
 70
     0
300
1/4" = 1'-0"
140
0.25
141
12.0
290
     0
  0
SCALE
  5
61
102
{ACAD_REACTORS
330
47
102
}
330
47
100
AcDbScale
 70
     0
300
3/8" = 1'-0"
140
0.375
141
12.0
290
     0
  0
SCALE
  5
62
102
{ACAD_REACTORS
330
47
102
}
330
47
100
AcDbScale
 70
     0
300
1/2" = 1'-0"
140
0.5
141
12.0
290
     0
  0
SCALE
  5
63
102
{ACAD_REACTORS
330
47
102
}
330
47
100
AcDbScale
 70
     0
300
3/4" = 1'-0"
140
0.75
141
12.0
290
     0
  0
SCALE
  5
64
102
{ACAD_REACTORS
330
47
102
}
330
47
100
AcDbScale
 70
     0
300
1" = 1'-0"
140
1.0
141
12.0
290
     0
  0
SCALE
  5
65
102
{ACAD_REACTORS
330
47
102
}
330
47
100
AcDbScale
 70
     0
300
1-1/2" = 1'-0"
140
1.5
141
12.0
290
     0
  0
SCALE
  5
66
102
{ACAD_REACTORS
330
47
102
}
330
47
100
AcDbScale
 70
     0
300
3" = 1'-0"
140
3.0
141
12.0
290
     0
  0
SCALE
  5
67
102
{ACAD_REACTORS
330
47
102
}
330
47
100
AcDbScale
 70
     0
300
6" = 1'-0"
140
6.0
141
12.0
290
     0
  0
SCALE
  5
68
102
{ACAD_REACTORS
330
47
102
}
330
47
100
AcDbScale
 70
     0
300
1'-0" = 1'-0"
140
12.0
141
12.0
290
     0
  0
ENDSEC
  0
EOF
