  0
SECTION
  2
HEADER
  9
$ACADVER
  1
AC1015
  9
$ACADMAINTVER
 70
     6
  9
$DWGCODEPAGE
  3
ANSI_1252
  9
$INSBASE
 10
0.0
 20
0.0
 30
0.0
  9
$EXTMIN
 10
-32.9520329365
 20
-50.8424147557
 30
0.0
  9
$EXTMAX
 10
82.60867539
 20
46.5682728084
 30
0.0
  9
$LIMMIN
 10
0.0
 20
0.0
  9
$LIMMAX
 10
420.0
 20
297.0
  9
$ORTHOMODE
 70
     0
  9
$REGENMODE
 70
     1
  9
$FILLMODE
 70
     1
  9
$QTEXTMODE
 70
     0
  9
$MIRRTEXT
 70
     1
  9
$LTSCALE
 40
1.0
  9
$ATTMODE
 70
     1
  9
$TEXTSIZE
 40
3.175
  9
$TRACEWID
 40
1.0
  9
$TEXTSTYLE
  7
Standard
  9
$CLAYER
  8
0
  9
$CELTYPE
  6
ByLayer
  9
$CECOLOR
 62
   256
  9
$CELTSCALE
 40
1.0
  9
$DISPSILH
 70
     0
  9
$DIMSCALE
 40
1.0
  9
$DIMASZ
 40
3.302
  9
$DIMEXO
 40
0.0
  9
$DIMDLI
 40
3.75
  9
$DIMRND
 40
0.0
  9
$DIMDLE
 40
0.0
  9
$DIMEXE
 40
3.175
  9
$DIMTP
 40
0.0
  9
$DIMTM
 40
0.0
  9
$DIMTXT
 40
3.175
  9
$DIMCEN
 40
2.5
  9
$DIMTSZ
 40
0.0
  9
$DIMTOL
 70
     0
  9
$DIMLIM
 70
     0
  9
$DIMTIH
 70
     1
  9
$DIMTOH
 70
     1
  9
$DIMSE1
 70
     0
  9
$DIMSE2
 70
     0
  9
$DIMTAD
 70
     0
  9
$DIMZIN
 70
     1
  9
$DIMBLK
  1

  9
$DIMASO
 70
     1
  9
$DIMSHO
 70
     1
  9
$DIMPOST
  1

  9
$DIMAPOST
  1

  9
$DIMALT
 70
     0
  9
$DIMALTD
 70
     3
  9
$DIMALTF
 40
0.0393700787
  9
$DIMLFAC
 40
1.0
  9
$DIMTOFL
 70
     1
  9
$DIMTVP
 40
0.0
  9
$DIMTIX
 70
     0
  9
$DIMSOXD
 70
     0
  9
$DIMSAH
 70
     0
  9
$DIMBLK1
  1

  9
$DIMBLK2
  1

  9
$DIMSTYLE
  2
ISO-25
  9
$DIMCLRD
 70
     0
  9
$DIMCLRE
 70
     0
  9
$DIMCLRT
 70
     0
  9
$DIMTFAC
 40
1.0
  9
$DIMGAP
 40
1.524
  9
$DIMJUST
 70
     0
  9
$DIMSD1
 70
     0
  9
$DIMSD2
 70
     0
  9
$DIMTOLJ
 70
     0
  9
$DIMTZIN
 70
     1
  9
$DIMALTZ
 70
     0
  9
$DIMALTTZ
 70
     0
  9
$DIMUPT
 70
     0
  9
$DIMDEC
 70
     2
  9
$DIMTDEC
 70
     2
  9
$DIMALTU
 70
     2
  9
$DIMALTTD
 70
     3
  9
$DIMTXSTY
  7
Standard
  9
$DIMAUNIT
 70
     0
  9
$DIMADEC
 70
     2
  9
$DIMALTRND
 40
0.0
  9
$DIMAZIN
 70
     0
  9
$DIMDSEP
 70
    44
  9
$DIMATFIT
 70
     3
  9
$DIMFRAC
 70
     0
  9
$DIMLDRBLK
  1

  9
$DIMLUNIT
 70
     2
  9
$DIMLWD
 70
    -2
  9
$DIMLWE
 70
    -2
  9
$DIMTMOVE
 70
     0
  9
$LUNITS
 70
     2
  9
$LUPREC
 70
     5
  9
$SKETCHINC
 40
1.0
  9
$FILLETRAD
 40
10.0
  9
$AUNITS
 70
     0
  9
$AUPREC
 70
     2
  9
$MENU
  1
.
  9
$ELEVATION
 40
0.0
  9
$PELEVATION
 40
0.0
  9
$THICKNESS
 40
0.0
  9
$LIMCHECK
 70
     0
  9
$CHAMFERA
 40
0.0
  9
$CHAMFERB
 40
0.0
  9
$CHAMFERC
 40
0.0
  9
$CHAMFERD
 40
0.0
  9
$SKPOLY
 70
     0
  9
$TDCREATE
 40
2460131.492234062
  9
$TDUCREATE
 40
2460131.658900729
  9
$TDUPDATE
 40
2460131.492319329
  9
$TDUUPDATE
 40
2460131.658985995
  9
$TDINDWG
 40
0.0000000116
  9
$TDUSRTIMER
 40
0.0000000116
  9
$USRTIMER
 70
     1
  9
$ANGBASE
 50
0.0
  9
$ANGDIR
 70
     0
  9
$PDMODE
 70
     0
  9
$PDSIZE
 40
-1.0
  9
$PLINEWID
 40
0.0
  9
$SPLFRAME
 70
     0
  9
$SPLINETYPE
 70
     6
  9
$SPLINESEGS
 70
     8
  9
$HANDSEED
  5
9C
  9
$SURFTAB1
 70
     6
  9
$SURFTAB2
 70
     6
  9
$SURFTYPE
 70
     6
  9
$SURFU
 70
     6
  9
$SURFV
 70
     6
  9
$UCSBASE
  2

  9
$UCSNAME
  2

  9
$UCSORG
 10
0.0
 20
0.0
 30
0.0
  9
$UCSXDIR
 10
1.0
 20
0.0
 30
0.0
  9
$UCSYDIR
 10
0.0
 20
1.0
 30
0.0
  9
$UCSORTHOREF
  2

  9
$UCSORTHOVIEW
 70
     0
  9
$UCSORGTOP
 10
0.0
 20
0.0
 30
0.0
  9
$UCSORGBOTTOM
 10
0.0
 20
0.0
 30
0.0
  9
$UCSORGLEFT
 10
0.0
 20
0.0
 30
0.0
  9
$UCSORGRIGHT
 10
0.0
 20
0.0
 30
0.0
  9
$UCSORGFRONT
 10
0.0
 20
0.0
 30
0.0
  9
$UCSORGBACK
 10
0.0
 20
0.0
 30
0.0
  9
$PUCSBASE
  2

  9
$PUCSNAME
  2

  9
$PUCSORG
 10
0.0
 20
0.0
 30
0.0
  9
$PUCSXDIR
 10
1.0
 20
0.0
 30
0.0
  9
$PUCSYDIR
 10
0.0
 20
1.0
 30
0.0
  9
$PUCSORTHOREF
  2

  9
$PUCSORTHOVIEW
 70
     0
  9
$PUCSORGTOP
 10
0.0
 20
0.0
 30
0.0
  9
$PUCSORGBOTTOM
 10
0.0
 20
0.0
 30
0.0
  9
$PUCSORGLEFT
 10
0.0
 20
0.0
 30
0.0
  9
$PUCSORGRIGHT
 10
0.0
 20
0.0
 30
0.0
  9
$PUCSORGFRONT
 10
0.0
 20
0.0
 30
0.0
  9
$PUCSORGBACK
 10
0.0
 20
0.0
 30
0.0
  9
$USERI1
 70
     0
  9
$USERI2
 70
     0
  9
$USERI3
 70
     0
  9
$USERI4
 70
     0
  9
$USERI5
 70
     0
  9
$USERR1
 40
0.0
  9
$USERR2
 40
0.0
  9
$USERR3
 40
0.0
  9
$USERR4
 40
0.0
  9
$USERR5
 40
0.0
  9
$WORLDVIEW
 70
     1
  9
$SHADEDGE
 70
     3
  9
$SHADEDIF
 70
    70
  9
$TILEMODE
 70
     1
  9
$MAXACTVP
 70
    64
  9
$PINSBASE
 10
0.0
 20
0.0
 30
0.0
  9
$PLIMCHECK
 70
     0
  9
$PEXTMIN
 10
1.0000000000E+20
 20
1.0000000000E+20
 30
1.0000000000E+20
  9
$PEXTMAX
 10
-1.0000000000E+20
 20
-1.0000000000E+20
 30
-1.0000000000E+20
  9
$PLIMMIN
 10
0.0
 20
0.0
  9
$PLIMMAX
 10
420.0
 20
297.0
  9
$UNITMODE
 70
     0
  9
$VISRETAIN
 70
     1
  9
$PLINEGEN
 70
     0
  9
$PSLTSCALE
 70
     1
  9
$TREEDEPTH
 70
  3020
  9
$CMLSTYLE
  2
Standard
  9
$CMLJUST
 70
     0
  9
$CMLSCALE
 40
20.0
  9
$PROXYGRAPHICS
 70
     1
  9
$MEASUREMENT
 70
     1
  9
$CELWEIGHT
370
    -1
  9
$ENDCAPS
280
     0
  9
$JOINSTYLE
280
     0
  9
$LWDISPLAY
290
     1
  9
$INSUNITS
 70
     4
  9
$HYPERLINKBASE
  1

  9
$STYLESHEET
  1

  9
$XEDIT
290
     1
  9
$CEPSNTYPE
380
     0
  9
$PSTYLEMODE
290
     1
  9
$FINGERPRINTGUID
  2
{97776fc8-8e27-4cc4-b9fc-dbd43c52f025}
  9
$VERSIONGUID
  2
{FAEB1C32-E019-11D5-929B-00C0DF256EC4}
  9
$EXTNAMES
290
     1
  9
$PSVPSCALE
 40
0.0
  9
$OLESTARTUP
290
     0
  0
ENDSEC
  0
SECTION
  2
CLASSES
  0
CLASS
  1
ACDBDICTIONARYWDFLT
  2
AcDbDictionaryWithDefault
  3
ObjectDBX Classes
 90
        0
280
     0
281
     0
  0
CLASS
  1
VISUALSTYLE
  2
AcDbVisualStyle
  3
ObjectDBX Classes
 90
     4095
280
     0
281
     0
  0
CLASS
  1
MATERIAL
  2
AcDbMaterial
  3
ObjectDBX Classes
 90
     1153
280
     0
281
     0
  0
CLASS
  1
SCALE
  2
AcDbScale
  3
ObjectDBX Classes
 90
     1153
280
     0
281
     0
  0
CLASS
  1
TABLESTYLE
  2
AcDbTableStyle
  3
ObjectDBX Classes
 90
     4095
280
     0
281
     0
  0
CLASS
  1
MLEADERSTYLE
  2
AcDbMLeaderStyle
  3
ACDB_MLEADERSTYLE_CLASS
 90
     4095
280
     0
281
     0
  0
CLASS
  1
SUN
  2
AcDbSun
  3
SCENEOE
 90
     1153
280
     0
281
     0
  0
CLASS
  1
ACDBPLACEHOLDER
  2
AcDbPlaceHolder
  3
ObjectDBX Classes
 90
        0
280
     0
281
     0
  0
CLASS
  1
LAYOUT
  2
AcDbLayout
  3
ObjectDBX Classes
 90
        0
280
     0
281
     0
  0
ENDSEC
  0
SECTION
  2
TABLES
  0
TABLE
  2
VPORT
  5
8
330
0
100
AcDbSymbolTable
 70
     1
  0
VPORT
  5
29
330
8
100
AcDbSymbolTableRecord
100
AcDbViewportTableRecord
  2
*Active
 70
     0
 10
0.0
 20
0.0
 11
1.0
 21
1.0
 12
24.8283212268
 22
-2.1370709736
 13
0.0
 23
0.0
 14
10.0
 24
10.0
 15
10.0
 25
10.0
 16
0.0
 26
0.0
 36
1.0
 17
0.0
 27
0.0
 37
0.0
 40
99.3589013153
 41
1.1863247372
 42
50.0
 43
0.0
 44
0.0
 50
0.0
 51
0.0
 71
     0
 72
   100
 73
     1
 74
     3
 75
     0
 76
     0
 77
     0
 78
     0
281
     0
 65
     1
110
0.0
120
0.0
130
0.0
111
1.0
121
0.0
131
0.0
112
0.0
122
1.0
132
0.0
 79
     0
146
0.0
  0
ENDTAB
  0
TABLE
  2
LTYPE
  5
5
330
0
100
AcDbSymbolTable
 70
     6
  0
LTYPE
  5
14
330
5
100
AcDbSymbolTableRecord
100
AcDbLinetypeTableRecord
  2
ByBlock
 70
     0
  3

 72
    65
 73
     0
 40
0.0
  0
LTYPE
  5
15
330
5
100
AcDbSymbolTableRecord
100
AcDbLinetypeTableRecord
  2
ByLayer
 70
     0
  3

 72
    65
 73
     0
 40
0.0
  0
LTYPE
  5
16
330
5
100
AcDbSymbolTableRecord
100
AcDbLinetypeTableRecord
  2
Continuous
 70
     0
  3
Solid line
 72
    65
 73
     0
 40
0.0
  0
LTYPE
  5
6E
330
5
100
AcDbSymbolTableRecord
100
AcDbLinetypeTableRecord
  2
HIDDEN
 70
     0
  3
Hidden __ __ __ __ __ __ __ __ __ __ __ __ __ __
 72
    65
 73
     2
 40
1.905
 49
1.27
 74
     0
 49
-0.635
 74
     0
  0
LTYPE
  5
6F
330
5
100
AcDbSymbolTableRecord
100
AcDbLinetypeTableRecord
  2
PHANTOM
 70
     0
  3
Phantom ______  __  __  ______  __  __  ______
 72
    65
 73
     6
 40
12.7
 49
6.35
 74
     0
 49
-1.27
 74
     0
 49
1.27
 74
     0
 49
-1.27
 74
     0
 49
1.27
 74
     0
 49
-1.27
 74
     0
  0
LTYPE
  5
70
330
5
100
AcDbSymbolTableRecord
100
AcDbLinetypeTableRecord
  2
CENTER
 70
     0
  3
Center ____ _ ____ _ ____ _ ____ _ ____ _ ____
 72
    65
 73
     4
 40
10.16
 49
6.35
 74
     0
 49
-1.27
 74
     0
 49
1.27
 74
     0
 49
-1.27
 74
     0
  0
LTYPE
  5
71
330
5
100
AcDbSymbolTableRecord
100
AcDbLinetypeTableRecord
  2
CENTERX2
 70
     0
  3
Center (2x) ________  __  ________  __  _____
 72
    65
 73
     4
 40
20.32
 49
12.7
 74
     0
 49
-2.54
 74
     0
 49
2.54
 74
     0
 49
-2.54
 74
     0
  0
LTYPE
  5
72
330
5
100
AcDbSymbolTableRecord
100
AcDbLinetypeTableRecord
  2
DOT2
 70
     0
  3
Dot (.5x) ........................................
 72
    65
 73
     2
 40
0.635
 49
0.0
 74
     0
 49
-0.635
 74
     0
  0
ENDTAB
  0
TABLE
  2
LAYER
  5
2
330
0
100
AcDbSymbolTable
 70
     1
  0
LAYER
  5
10
330
2
100
AcDbSymbolTableRecord
100
AcDbLayerTableRecord
  2
0
 70
     0
 62
     7
  6
Continuous
370
    -3
390
F
  0
ENDTAB
  0
TABLE
  2
STYLE
  5
3
330
0
100
AcDbSymbolTable
 70
     1
  0
STYLE
  5
11
330
3
100
AcDbSymbolTableRecord
100
AcDbTextStyleTableRecord
  2
Standard
 70
     0
 40
0.0
 41
1.0
 50
0.0
 71
     0
 42
3.175
  3
txt
  4

  0
ENDTAB
  0
TABLE
  2
VIEW
  5
6
330
0
100
AcDbSymbolTable
 70
     0
  0
ENDTAB
  0
TABLE
  2
UCS
  5
7
330
0
100
AcDbSymbolTable
 70
     0
  0
ENDTAB
  0
TABLE
  2
APPID
  5
9
330
0
100
AcDbSymbolTable
 70
     1
  0
APPID
  5
12
330
9
100
AcDbSymbolTableRecord
100
AcDbRegAppTableRecord
  2
ACAD
 70
     0
  0
ENDTAB
  0
TABLE
  2
DIMSTYLE
  5
A
330
0
100
AcDbSymbolTable
 70
     1
100
AcDbDimStyleTable
  0
DIMSTYLE
105
27
330
A
100
AcDbSymbolTableRecord
100
AcDbDimStyleTableRecord
  2
ISO-25
 70
     0
 41
2.5
 42
0.625
 43
3.75
 44
1.25
 73
     0
 74
     0
 77
     1
 78
     8
140
2.5
141
2.5
143
0.0393700787
147
0.625
171
     3
172
     1
178
     0
271
     2
272
     2
274
     3
278
    44
283
     0
284
     8
340
11
  0
ENDTAB
  0
TABLE
  2
BLOCK_RECORD
  5
1
330
0
100
AcDbSymbolTable
 70
     1
  0
BLOCK_RECORD
  5
1F
330
1
100
AcDbSymbolTableRecord
100
AcDbBlockTableRecord
  2
*Model_Space
340
22
  0
BLOCK_RECORD
  5
1B
330
1
100
AcDbSymbolTableRecord
100
AcDbBlockTableRecord
  2
*Paper_Space
340
1E
  0
BLOCK_RECORD
  5
23
330
1
100
AcDbSymbolTableRecord
100
AcDbBlockTableRecord
  2
*Paper_Space0
340
26
  0
ENDTAB
  0
ENDSEC
  0
SECTION
  2
BLOCKS
  0
BLOCK
  5
20
330
1F
100
AcDbEntity
  8
0
100
AcDbBlockBegin
  2
*Model_Space
 70
     0
 10
0.0
 20
0.0
 30
0.0
  3
*Model_Space
  1

  0
ENDBLK
  5
21
330
1F
100
AcDbEntity
  8
0
100
AcDbBlockEnd
  0
BLOCK
  5
1C
330
1B
100
AcDbEntity
 67
     1
  8
0
100
AcDbBlockBegin
  2
*Paper_Space
 70
     0
 10
0.0
 20
0.0
 30
0.0
  3
*Paper_Space
  1

  0
ENDBLK
  5
1D
330
1B
100
AcDbEntity
 67
     1
  8
0
100
AcDbBlockEnd
  0
BLOCK
  5
24
330
23
100
AcDbEntity
  8
0
100
AcDbBlockBegin
  2
*Paper_Space0
 70
     0
 10
0.0
 20
0.0
 30
0.0
  3
*Paper_Space0
  1

  0
ENDBLK
  5
25
330
23
100
AcDbEntity
  8
0
100
AcDbBlockEnd
  0
ENDSEC
  0
SECTION
  2
ENTITIES
  0
LWPOLYLINE
  5
73
330
1F
100
AcDbEntity
  8
0
  6
Continuous
 62
     7
370
    25
100
AcDbPolyline
 90
       55
 70
   128
 43
0.0
 10
10.5316566964
 20
2.0757587271
 10
10.9178538442
 20
3.142752383
 10
11.2173687057
 20
4.2568874666
 10
11.428694563
 20
5.4125592898
 10
11.5507683353
 20
6.603954213
 10
11.582975927
 20
7.8250788903
 10
11.5251553171
 20
9.0697904197
 10
11.3775973736
 20
10.3318272447
 10
11.141044391
 20
11.6048406533
 10
10.8166863557
 20
12.8824267158
 10
10.4061549601
 20
14.1581584994
 10
9.9115153938
 20
15.4256183993
 10
9.3352559552
 20
16.6784304228
 10
8.6802755336
 20
17.9102922636
 10
7.9498690265
 20
19.115007006
 10
7.1477107644
 20
20.2865142985
 10
6.2778360272
 20
21.4189208405
 10
5.3446207443
 20
22.5065300291
 10
4.3527594814
 20
23.5438706155
 10
3.3072418246
 20
24.5257242286
 10
2.21332728
 20
25.4471516261
 10
1.0765188157
 20
26.3035175415
 10
-0.0974648215
 20
27.0905140018
 10
-1.3027178736
 20
27.8041819993
 10
-2.5331772811
 20
28.4409314068
 10
-3.7826531833
 20
28.9975590385
 10
-5.0448600564
 20
29.4712647635
 10
-6.3134483331
 20
29.8596655916
 10
-7.5820363444
 20
30.1608076617
 10
-8.8442424223
 20
30.3731760699
 10
-10.0937170036
 20
30.495702491
 10
-11.3241745712
 20
30.5277705524
 10
-12.5294252735
 20
30.4692189349
 10
-13.703406063
 20
30.3203421839
 10
-14.840211196
 20
30.0818892282
 10
-15.9341219423
 20
29.7550596121
 10
-16.9796353531
 20
29.3414974612
 10
-17.9714919436
 20
28.8432832116
 10
-18.9047021512
 20
28.2629231441
 10
-19.7745714357
 20
27.6033367763
 10
-20.576723895
 20
26.8678421763
 10
-21.3071242787
 20
26.0601392702
 10
-21.9620982869
 20
25.1842912304
 10
-22.5383510545
 20
24.244704035
 10
-23.0329837255
 20
23.2461043041
 10
-23.4435080365
 20
22.1935155218
 10
-23.7678588333
 20
21.0922327655
 10
-24.00440446
 20
19.9477960694
 10
-24.1519549672
 20
18.7659625545
 10
-24.2097680979
 20
17.5526774675
 10
-24.1775530215
 20
16.3140442735
 10
-24.0554717969
 20
15.0562939517
 10
-23.8441385571
 20
13.7857536504
 10
-23.54461642
 20
12.5088148586
 10
-23.15841214
 20
11.2319012529
  0
LWPOLYLINE
  5
74
330
1F
100
AcDbEntity
  8
0
  6
Continuous
 62
     7
370
    25
100
AcDbPolyline
 90
       54
 70
   128
 43
0.0
 10
-23.15841214
 20
11.2319012529
 10
-23.5432424386
 20
10.1456050877
 10
-23.8385710001
 20
9.0112133977
 10
-24.0428637211
 20
7.834618854
 10
-24.1550593899
 20
6.621933353
 10
-24.1745751989
 20
5.3794562678
 10
-24.101309772
 20
4.113641726
 10
-23.935643691
 20
2.8310650831
 10
-23.6784375193
 20
1.5383887663
 10
-23.3310273308
 20
0.2423276663
 10
-22.8952177703
 20
-1.0503857438
 10
-22.3732726787
 20
-2.3330363805
 10
-21.7679033335
 20
-3.5989614322
 10
-21.0822543649
 20
-4.8415849694
 10
-20.3198874208
 20
-6.0544521039
 10
-19.4847626656
 20
-7.2312625188
 10
-18.5812182087
 20
-8.3659031965
 10
-17.6139475703
 20
-9.4524801726
 10
-16.5879753003
 20
-10.4853491528
 10
-15.5086308778
 20
-11.4591448323
 10
-14.3815210273
 20
-12.3688087666
 10
-13.2125005937
 20
-13.2096156475
 10
-12.0076421292
 20
-13.9771978495
 10
-10.7732043491
 20
-14.667568117
 10
-9.5155996201
 20
-15.2771402772
 10
-8.2413606513
 20
-15.802747868
 10
-6.9571065595
 20
-16.2416605869
 10
-5.6695084854
 20
-16.5915984733
 10
-4.3852549405
 20
-16.8507437523
 10
-3.1110170629
 20
-17.017750277
 10
-1.8534139636
 20
-17.0917505212
 10
-0.6189783431
 20
-17.0723600858
 10
0.5858774429
 20
-16.9596796958
 10
1.7548946931
 20
-16.7542946766
 10
2.8820008718
 20
-16.457271914
 10
3.9613411533
 20
-16.0701543121
 10
4.9873088346
 20
-15.5949527781
 10
5.9545744603
 20
-15.0341357772
 10
6.8581135065
 20
-14.3906165095
 10
7.6932324813
 20
-13.6677377775
 10
8.4555933052
 20
-12.8692546214
 10
9.1412358456
 20
-11.9993148137
 10
9.7465984881
 20
-11.0624373128
 10
10.2685366372
 20
-10.0634887896
 10
10.7043390515
 20
-9.0076583467
 10
11.0517419271
 20
-7.9004305636
 10
11.3089406575
 20
-6.7475570065
 10
11.4745992071
 20
-5.5550263517
 10
11.5478570519
 20
-4.3290332768
 10
11.5283336494
 20
-3.075946282
 10
11.416130415
 20
-1.8022746087
 10
11.2118301957
 20
-0.5146344268
 10
10.9164942423
 20
0.7802855336
 10
10.5316566964
 20
2.0757587271
  0
LWPOLYLINE
  5
79
330
1F
100
AcDbEntity
  8
0
  6
Continuous
 62
     7
370
    25
100
AcDbPolyline
 90
       54
 70
   128
 43
0.0
 10
36.7915088125
 20
-5.0611063975
 10
36.4066712666
 20
-6.1473983931
 10
36.1113353131
 20
-7.2817863858
 10
35.9070350939
 20
-8.4583777238
 10
35.7948318595
 20
-9.6710605274
 10
35.7753084569
 20
-10.9135354372
 10
35.8485663018
 20
-12.1793483371
 10
36.0142248514
 20
-13.4619238802
 10
36.2714235817
 20
-14.7545996449
 10
36.6188264574
 20
-16.0506607433
 10
37.0546288717
 20
-17.3433747024
 10
37.5765670208
 20
-18.6260264359
 10
38.1819296632
 20
-19.8919531265
 10
38.8675722036
 20
-21.1345788361
 10
39.6299330276
 20
-22.3474486652
 10
40.4650520024
 20
-23.5242622831
 10
41.3685910486
 20
-24.6589066553
 10
42.3358566743
 20
-25.7454877983
 10
43.3618243556
 20
-26.7783613962
 10
44.441164637
 20
-27.7521621203
 10
45.5682708158
 20
-28.6618314997
 10
46.737288066
 20
-29.502644198
 10
47.942143852
 20
-30.2702325595
 10
49.1765794724
 20
-30.9606092966
 10
50.4341825718
 20
-31.5701882029
 10
51.7084204494
 20
-32.0958027812
 10
52.9926739942
 20
-32.5347226928
 10
54.2802720683
 20
-32.8846679396
 10
55.5645261602
 20
-33.1438207086
 10
56.838765129
 20
-33.3108348139
 10
58.0963698579
 20
-33.38484269
 10
59.3308076381
 20
-33.3654598981
 10
60.5356661025
 20
-33.2527871235
 10
61.7046865361
 20
-33.0474096521
 10
62.8317963866
 20
-32.7503943304
 10
63.9111408091
 20
-32.3632840239
 10
64.9371130792
 20
-31.8880896019
 10
65.9043837176
 20
-31.3272794926
 10
66.8079281745
 20
-30.6837668605
 10
67.6430529297
 20
-29.9608944733
 10
68.4054198738
 20
-29.1624173386
 10
69.0910688424
 20
-28.2924831973
 10
69.6964381876
 20
-27.3556109787
 10
70.2183832792
 20
-26.3566673259
 10
70.6541928397
 20
-25.3008413164
 10
71.0016030281
 20
-24.1936175067
 10
71.2588091999
 20
-23.0407474423
 10
71.4244752808
 20
-21.8482197814
 10
71.4977407078
 20
-20.6222291859
 10
71.4782248988
 20
-19.3691441433
 10
71.3660292299
 20
-18.0954738848
 10
71.1617365089
 20
-16.8078345729
 10
70.8664079475
 20
-15.5129149332
 10
70.4815776489
 20
-14.2174415095
  0
LWPOLYLINE
  5
7A
330
1F
100
AcDbEntity
  8
0
  6
Continuous
 62
     7
370
    25
100
AcDbPolyline
 90
       55
 70
   128
 43
0.0
 10
70.4815776489
 20
-14.2174415095
 10
70.8677819288
 20
-13.1504519996
 10
71.167304066
 20
-12.0363206056
 10
71.3786373058
 20
-10.8806519968
 10
71.5007185304
 20
-9.6892597969
 10
71.5329336067
 20
-8.4681373378
 10
71.475120476
 20
-7.2234275106
 10
71.3275699688
 20
-5.9613918632
 10
71.0910243421
 20
-4.6883791015
 10
70.7666735454
 20
-3.4107931522
 10
70.3561492344
 20
-2.1350609473
 10
69.8615165633
 20
-0.8676000938
 10
69.2852637958
 20
0.3852134107
 10
68.6302897876
 20
1.6170772527
 10
67.8998894039
 20
2.8217945061
 10
67.0977369445
 20
3.993304807
 10
66.2278676601
 20
5.1257148397
 10
65.2946574524
 20
6.2133279835
 10
64.302800862
 20
7.2506729699
 10
63.2572874512
 20
8.2325314056
 10
62.1633767049
 20
9.1539640241
 10
61.0265715718
 20
10.0103355325
 10
59.8525907824
 20
10.7973379299
 10
58.64734008
 20
11.5110121784
 10
57.4168825125
 20
12.1477681197
 10
56.1674079311
 20
12.704402535
 10
54.9052018532
 20
13.1781152591
 10
53.636613842
 20
13.5665232669
 10
52.3680255653
 20
13.8676726608
 10
51.1058186922
 20
14.0800485005
 10
49.85634279
 20
14.2025824231
 10
48.6258833824
 20
14.2346580184
 10
47.4206303303
 20
14.1761139292
 10
46.2466466932
 20
14.0272446631
 10
45.1098382288
 20
13.7887991112
 10
44.0159236843
 20
13.4619767807
 10
42.9704060275
 20
13.0484217603
 10
41.9785447646
 20
12.5502144504
 10
41.0453294816
 20
11.9698610969
 10
40.1754547444
 20
11.3102811837
 10
39.3732964824
 20
10.5747927461
 10
38.6428899753
 20
9.7670956795
 10
37.9879095537
 20
8.8912531268
 10
37.4116501151
 20
7.9516710387
 10
36.9170105488
 20
6.9530760093
 10
36.5064791531
 20
5.9004914992
 10
36.1821211179
 20
4.7992125643
 10
35.9455681353
 20
3.6547792196
 10
35.7980101918
 20
2.4729485691
 10
35.7401895818
 20
1.2596658454
 10
35.7723971736
 20
0.0210345014
 10
35.8944709459
 20
-1.2367144929
 10
36.1057968031
 20
-2.5072539958
 10
36.4053116646
 20
-3.7841925224
 10
36.7915088125
 20
-5.0611063975
  0
LWPOLYLINE
  5
7B
330
1F
100
AcDbEntity
  8
0
  6
Continuous
 62
     7
370
    25
100
AcDbPolyline
 90
       24
 70
   128
 43
0.0
 10
-21.8148949594
 20
31.7318144129
 10
-21.8632109445
 20
32.0856393235
 10
-22.0045755242
 20
32.439485158
 10
-22.2285043344
 20
32.7671087897
 10
-22.5183895996
 20
33.0442118725
 10
-22.8527318558
 20
33.2502429385
 10
-23.2067344674
 20
33.3699216061
 10
-23.5541426802
 20
33.3943718559
 10
-23.8691908162
 20
33.3217803248
 10
-24.1285131966
 20
33.1575307945
 10
-24.3128770666
 20
32.9138049014
 10
-24.4086090014
 20
32.6086786799
 10
-24.4086090014
 20
32.264781946
 10
-24.3128770666
 20
31.9076199474
 10
-24.1285131966
 20
31.5636817554
 10
-23.8691908162
 20
31.2584756924
 10
-23.5541426802
 20
31.0146374958
 10
-23.2067344674
 20
30.8502515293
 10
-22.8527318558
 20
30.7775095479
 10
-22.5183895996
 20
30.8018064916
 10
-22.2285043344
 20
30.9213403672
 10
-22.0045755242
 20
31.1272458941
 10
-21.8632109445
 20
31.4042520013
 10
-21.8148949594
 20
31.7318144129
  0
LWPOLYLINE
  5
7C
330
1F
100
AcDbEntity
  8
0
  6
Continuous
 62
     7
370
    25
100
AcDbPolyline
 90
       24
 70
   128
 43
0.0
 10
71.7436422768
 20
-38.9918829853
 10
71.6953262917
 20
-38.6380580748
 10
71.553961712
 20
-38.2842122402
 10
71.3300329018
 20
-37.9565886086
 10
71.0401476366
 20
-37.6794855257
 10
70.7058053804
 20
-37.4734544597
 10
70.3518027687
 20
-37.3537757922
 10
70.004394556
 20
-37.3293255424
 10
69.6893464199
 20
-37.4019170735
 10
69.4300240396
 20
-37.5661666037
 10
69.2456601696
 20
-37.8098924969
 10
69.1499282348
 20
-38.1150187184
 10
69.1499282348
 20
-38.4589154522
 10
69.2456601696
 20
-38.8160774509
 10
69.4300240396
 20
-39.1600156429
 10
69.6893464199
 20
-39.4652217059
 10
70.004394556
 20
-39.7090599024
 10
70.3518027687
 20
-39.873445869
 10
70.7058053804
 20
-39.9461878504
 10
71.0401476366
 20
-39.9218909067
 10
71.3300329018
 20
-39.802357031
 10
71.553961712
 20
-39.5964515041
 10
71.6953262917
 20
-39.319445397
 10
71.7436422768
 20
-38.9918829853
  0
LWPOLYLINE
  5
7D
330
1F
100
AcDbEntity
  8
0
  6
Continuous
 62
     7
370
    25
100
AcDbPolyline
 90
       24
 70
   128
 43
0.0
 10
71.7430415258
 20
6.305286721
 10
71.6947255407
 20
6.6591116316
 10
71.5533609609
 20
7.0129574661
 10
71.3294321507
 20
7.3405810978
 10
71.0395468855
 20
7.6176841807
 10
70.7052046293
 20
7.8237152467
 10
70.3512020177
 20
7.9433939142
 10
70.0037938049
 20
7.967844164
 10
69.6887456689
 20
7.8952526329
 10
69.4294232886
 20
7.7310031026
 10
69.2450594186
 20
7.4872772095
 10
69.1493274837
 20
7.182150988
 10
69.1493274837
 20
6.8382542542
 10
69.2450594186
 20
6.4810922555
 10
69.4294232886
 20
6.1371540635
 10
69.6887456689
 20
5.8319480005
 10
70.0037938049
 20
5.588109804
 10
70.3512020177
 20
5.4237238374
 10
70.7052046293
 20
5.350981856
 10
71.0395468855
 20
5.3752787997
 10
71.3294321507
 20
5.4948126754
 10
71.5533609609
 20
5.7007182023
 10
71.6947255407
 20
5.9777243094
 10
71.7430415258
 20
6.305286721
  0
LWPOLYLINE
  5
7E
330
1F
100
AcDbEntity
  8
0
  6
Continuous
 62
     7
370
    25
100
AcDbPolyline
 90
       24
 70
   128
 43
0.0
 10
38.1351529707
 20
15.4387720204
 10
38.0868369856
 20
15.792596931
 10
37.9454724058
 20
16.1464427655
 10
37.7215435957
 20
16.4740663972
 10
37.4316583305
 20
16.75116948
 10
37.0973160742
 20
16.957200546
 10
36.7433134626
 20
17.0768792136
 10
36.3959052499
 20
17.1013294634
 10
36.0808571138
 20
17.0287379322
 10
35.8215347335
 20
16.864488402
 10
35.6371708635
 20
16.6207625089
 10
35.5414389287
 20
16.3156362874
 10
35.5414389287
 20
15.9717395535
 10
35.6371708635
 20
15.6145775548
 10
35.8215347335
 20
15.2706393629
 10
36.0808571138
 20
14.9654332999
 10
36.3959052499
 20
14.7215951033
 10
36.7433134626
 20
14.5572091368
 10
37.0973160742
 20
14.4844671554
 10
37.4316583305
 20
14.5087640991
 10
37.7215435957
 20
14.6282979747
 10
37.9454724058
 20
14.8342035016
 10
38.0868369856
 20
15.1112096088
 10
38.1351529707
 20
15.4387720204
  0
LWPOLYLINE
  5
7F
330
1F
100
AcDbEntity
  8
0
  6
Continuous
 62
     7
370
    25
100
AcDbPolyline
 90
       24
 70
   128
 43
0.0
 10
11.7929935926
 20
22.5985212309
 10
11.7446776075
 20
22.9523461415
 10
11.6033130277
 20
23.306191976
 10
11.3793842175
 20
23.6338156077
 10
11.0894989523
 20
23.9109186905
 10
10.7551566961
 20
24.1169497565
 10
10.4011540845
 20
24.2366284241
 10
10.0537458717
 20
24.2610786739
 10
9.7386977357
 20
24.1884871428
 10
9.4793753554
 20
24.0242376125
 10
9.2950114854
 20
23.7805117194
 10
9.1992795505
 20
23.4753854979
 10
9.1992795505
 20
23.131488764
 10
9.2950114854
 20
22.7743267654
 10
9.4793753554
 20
22.4303885734
 10
9.7386977357
 20
22.1251825104
 10
10.0537458717
 20
21.8813443138
 10
10.4011540845
 20
21.7169583473
 10
10.7551566961
 20
21.6442163659
 10
11.0894989523
 20
21.6685133096
 10
11.3793842175
 20
21.7880471852
 10
11.6033130277
 20
21.9939527121
 10
11.7446776075
 20
22.2709588193
 10
11.7929935926
 20
22.5985212309
  0
LWPOLYLINE
  5
80
330
1F
100
AcDbEntity
  8
0
  6
Continuous
 62
     7
370
    25
100
AcDbPolyline
 90
       24
 70
   128
 43
0.0
 10
-21.8140185463
 20
-13.5654302083
 10
-21.8623345314
 20
-13.2116052977
 10
-22.0036991111
 20
-12.8577594632
 10
-22.2276279213
 20
-12.5301358315
 10
-22.5175131865
 20
-12.2530327487
 10
-22.8518554427
 20
-12.0470016827
 10
-23.2058580543
 20
-11.9273230151
 10
-23.5532662671
 20
-11.9028727653
 10
-23.8683144031
 20
-11.9754642964
 10
-24.1276367835
 20
-12.1397138267
 10
-24.3120006535
 20
-12.3834397198
 10
-24.4077325883
 20
-12.6885659413
 10
-24.4077325883
 20
-13.0324626752
 10
-24.3120006535
 20
-13.3896246738
 10
-24.1276367835
 20
-13.7335628658
 10
-23.8683144031
 20
-14.0387689288
 10
-23.5532662671
 20
-14.2826071254
 10
-23.2058580543
 20
-14.4469930919
 10
-22.8518554427
 20
-14.5197350733
 10
-22.5175131865
 20
-14.4954381296
 10
-22.2276279213
 20
-14.3759042539
 10
-22.0036991111
 20
-14.1699987271
 10
-21.8623345314
 20
-13.8929926199
 10
-21.8140185463
 20
-13.5654302083
  0
LWPOLYLINE
  5
81
330
1F
100
AcDbEntity
  8
0
  6
Continuous
 62
     7
370
    25
100
AcDbPolyline
 90
       24
 70
   128
 43
0.0
 10
11.7938700057
 20
-22.6987233903
 10
11.7455540206
 20
-22.3448984797
 10
11.6041894408
 20
-21.9910526452
 10
11.3802606306
 20
-21.6634290135
 10
11.0903753654
 20
-21.3863259307
 10
10.7560331092
 20
-21.1802948647
 10
10.4020304976
 20
-21.0606161971
 10
10.0546222849
 20
-21.0361659473
 10
9.7395741488
 20
-21.1087574784
 10
9.4802517685
 20
-21.2730070087
 10
9.2958878985
 20
-21.5167329018
 10
9.2001559636
 20
-21.8218591233
 10
9.2001559636
 20
-22.1657558572
 10
9.2958878985
 20
-22.5229178558
 10
9.4802517685
 20
-22.8668560478
 10
9.7395741488
 20
-23.1720621108
 10
10.0546222849
 20
-23.4159003074
 10
10.4020304976
 20
-23.5802862739
 10
10.7560331092
 20
-23.6530282553
 10
11.0903753654
 20
-23.6287313116
 10
11.3802606306
 20
-23.509197436
 10
11.6041894408
 20
-23.3032919091
 10
11.7455540206
 20
-23.0262858019
 10
11.7938700057
 20
-22.6987233903
  0
LWPOLYLINE
  5
82
330
1F
100
AcDbEntity
  8
0
  6
Continuous
 62
     7
370
    25
100
AcDbPolyline
 90
       24
 70
   128
 43
0.0
 10
38.1357537217
 20
-29.858397686
 10
38.0874377366
 20
-29.5045727754
 10
37.9460731569
 20
-29.1507269409
 10
37.7221443467
 20
-28.8231033092
 10
37.4322590815
 20
-28.5460002264
 10
37.0979168253
 20
-28.3399691604
 10
36.7439142137
 20
-28.2202904928
 10
36.3965060009
 20
-28.195840243
 10
36.0814578649
 20
-28.2684317741
 10
35.8221354845
 20
-28.4326813044
 10
35.6377716145
 20
-28.6764071975
 10
35.5420396797
 20
-28.981533419
 10
35.5420396797
 20
-29.3254301528
 10
35.6377716145
 20
-29.6825921515
 10
35.8221354845
 20
-30.0265303435
 10
36.0814578649
 20
-30.3317364065
 10
36.3965060009
 20
-30.5755746031
 10
36.7439142137
 20
-30.7399605696
 10
37.0979168253
 20
-30.812702551
 10
37.4322590815
 20
-30.7884056073
 10
37.7221443467
 20
-30.6688717316
 10
37.9460731569
 20
-30.4629662048
 10
38.0874377366
 20
-30.1859600976
 10
38.1357537217
 20
-29.858397686
  0
LWPOLYLINE
  5
8A
330
1F
100
AcDbEntity
  8
0
  6
Continuous
 62
     7
370
    25
100
AcDbPolyline
 90
       39
 70
   128
 43
0.0
 10
39.1249857571
 20
-2.7835613634
 10
38.7401482112
 20
-3.8698533591
 10
38.4448122578
 20
-5.0042413518
 10
38.2405120385
 20
-6.1808326898
 10
38.1283088042
 20
-7.3935154933
 10
38.1087854016
 20
-8.6359904032
 10
38.1820432464
 20
-9.9018033031
 10
38.347701796
 20
-11.1843788462
 10
38.6049005264
 20
-12.4770546109
 10
38.9523034021
 20
-13.7731157093
 10
39.3881058163
 20
-15.0658296684
 10
39.9100439654
 20
-16.3484814019
 10
40.5154066079
 20
-17.6144080925
 10
41.2010491483
 20
-18.8570338021
 10
41.9634099722
 20
-20.0699036312
 10
42.798528947
 20
-21.2467172491
 10
43.7020679933
 20
-22.3813616213
 10
44.6693336189
 20
-23.4679427643
 10
45.6953013002
 20
-24.5008163622
 10
46.7746415817
 20
-25.4746170862
 10
47.9017477605
 20
-26.3842864656
 10
49.0707650107
 20
-27.225099164
 10
50.2756207966
 20
-27.9926875255
 10
51.5100564171
 20
-28.6830642626
 10
52.7676595164
 20
-29.2926431689
 10
54.041897394
 20
-29.8182577472
 10
55.3261509389
 20
-30.2571776587
 10
56.613749013
 20
-30.6071229056
 10
57.8980031048
 20
-30.8662756746
 10
59.1722420736
 20
-31.0332897799
 10
60.4298468026
 20
-31.107297656
 10
61.6642845827
 20
-31.0879148641
 10
62.8691430472
 20
-30.9752420895
 10
64.0381634808
 20
-30.769864618
 10
65.1652733313
 20
-30.4728492964
 10
66.2446177538
 20
-30.0857389899
 10
67.2705900239
 20
-29.6105445679
 10
68.2378606623
 20
-29.0497344586
 10
68.8322247424
 20
-28.6410176127
  0
LWPOLYLINE
  5
8D
330
1F
100
AcDbEntity
  8
0
  6
Continuous
 62
     7
370
    25
100
AcDbPolyline
 90
       39
 70
   128
 43
0.0
 10
-20.8249351954
 20
13.5094462869
 10
-21.209765494
 20
12.4231501217
 10
-21.5050940554
 20
11.2887584318
 10
-21.7093867764
 20
10.1121638881
 10
-21.8215824453
 20
8.899478387
 10
-21.8410982543
 20
7.6570013018
 10
-21.7678328273
 20
6.39118676
 10
-21.6021667464
 20
5.1086101171
 10
-21.3449605746
 20
3.8159338003
 10
-20.9975503862
 20
2.5198727003
 10
-20.5617408257
 20
1.2271592902
 10
-20.0397957341
 20
-0.0554913465
 10
-19.4344263889
 20
-1.3214163982
 10
-18.7487774203
 20
-2.5640399354
 10
-17.9864104762
 20
-3.7769070699
 10
-17.151285721
 20
-4.9537174848
 10
-16.2477412641
 20
-6.0883581625
 10
-15.2804706257
 20
-7.1749351386
 10
-14.2544983556
 20
-8.2078041187
 10
-13.1751539331
 20
-9.1815997983
 10
-12.0480440826
 20
-10.0912637325
 10
-10.879023649
 20
-10.9320706135
 10
-9.6741651846
 20
-11.6996528154
 10
-8.4397274044
 20
-12.390023083
 10
-7.1821226755
 20
-12.9995952432
 10
-5.9078837067
 20
-13.525202834
 10
-4.6236296148
 20
-13.9641155529
 10
-3.3360315407
 20
-14.3140534393
 10
-2.0517779959
 20
-14.5731987183
 10
-0.7775401182
 20
-14.740205243
 10
0.4800629811
 20
-14.8142054872
 10
1.7144986015
 20
-14.7948150518
 10
2.9193543875
 20
-14.6821346618
 10
4.0883716377
 20
-14.4767496426
 10
5.2154778165
 20
-14.17972688
 10
6.294818098
 20
-13.7926092781
 10
7.3207857792
 20
-13.3174077441
 10
8.2880514049
 20
-12.7565907432
 10
8.8823388861
 20
-12.3479232076
  0
LINE
  5
8E
330
1F
100
AcDbEntity
  8
0
  6
Continuous
 62
     7
370
    25
100
AcDbLine
 10
80.2751984454
 20
-50.8424147557
 30
0.0
 11
80.2751984454
 21
13.5179924508
 31
0.0
  0
LINE
  5
8F
330
1F
100
AcDbEntity
  8
0
  6
Continuous
 62
     7
370
    25
100
AcDbLine
 10
-32.9520329365
 20
-20.0696794321
 30
0.0
 11
80.2751984454
 21
-50.8424147557
 31
0.0
  0
LINE
  5
90
330
1F
100
AcDbEntity
  8
0
  6
Continuous
 62
     7
370
    25
100
AcDbLine
 10
-32.9520329365
 20
-20.0696794321
 30
0.0
 11
-32.9520329365
 21
44.2907277743
 31
0.0
  0
LINE
  5
91
330
1F
100
AcDbEntity
  8
0
  6
Continuous
 62
     7
370
    25
100
AcDbLine
 10
-32.9520329365
 20
44.2907277743
 30
0.0
 11
80.2751984454
 21
13.5179924508
 31
0.0
  0
LINE
  5
92
330
1F
100
AcDbEntity
  8
0
  6
Continuous
 62
     7
370
    25
100
AcDbLine
 10
80.2751984454
 20
13.5179924508
 30
0.0
 11
82.60867539
 21
15.7955374848
 31
0.0
  0
LINE
  5
93
330
1F
100
AcDbEntity
  8
0
  6
Continuous
 62
     7
370
    25
100
AcDbLine
 10
-32.9520329365
 20
44.2907277743
 30
0.0
 11
-30.6185559919
 21
46.5682728084
 31
0.0
  0
LINE
  5
94
330
1F
100
AcDbEntity
  8
0
  6
Continuous
 62
     7
370
    25
100
AcDbLine
 10
-30.6185559919
 20
46.5682728084
 30
0.0
 11
82.60867539
 21
15.7955374848
 31
0.0
  0
LINE
  5
95
330
1F
100
AcDbEntity
  8
0
  6
Continuous
 62
     7
370
    25
100
AcDbLine
 10
80.2751984454
 20
-50.8424147557
 30
0.0
 11
82.60867539
 21
-48.5648697216
 31
0.0
  0
LINE
  5
96
330
1F
100
AcDbEntity
  8
0
  6
Continuous
 62
     7
370
    25
100
AcDbLine
 10
82.60867539
 20
-48.5648697216
 30
0.0
 11
82.60867539
 21
15.7955374848
 31
0.0
  0
LINE
  5
97
330
1F
100
AcDbEntity
  8
0
  6
Continuous
 62
     7
370
    25
100
AcDbLine
 10
36.7915088125
 20
-5.0611063975
 30
0.0
 11
39.1249857571
 21
-2.7835613634
 31
0.0
  0
LINE
  5
98
330
1F
100
AcDbEntity
  8
0
  6
Continuous
 62
     7
370
    25
100
AcDbLine
 10
-23.15841214
 20
11.2319012529
 30
0.0
 11
-20.8249351954
 21
13.5094462869
 31
0.0
  0
ARC
  5
99
330
1F
100
AcDbEntity
  8
0
  6
Continuous
 62
     7
370
    25
100
AcDbCircle
 10
53.5620142075
 20
2.9664453228
 30
0.0
 40
15.53996033997986
100
AcDbArc
 50
145.5412900346
 51
201.7164957866
  0
ARC
  5
9A
330
1F
100
AcDbEntity
  8
0
  6
Continuous
 62
     7
370
    25
100
AcDbCircle
 10
-6.3878944089
 20
19.2595470963
 30
0.0
 40
15.54000662765824
100
AcDbArc
 50
145.5413541038
 51
201.7168013579
  0
ENDSEC
  0
SECTION
  2
OBJECTS
  0
DICTIONARY
  5
C
330
0
100
AcDbDictionary
281
     1
  3
ACAD_GROUP
350
D
  3
ACAD_LAYOUT
350
1A
  3
ACAD_MLINESTYLE
350
17
  3
ACAD_PLOTSETTINGS
350
19
  3
ACAD_PLOTSTYLENAME
350
E
  3
ACAD_SCALELIST
350
47
  3
DWGPROPS
350
9B
  0
DICTIONARY
  5
D
102
{ACAD_REACTORS
330
C
102
}
330
C
100
AcDbDictionary
281
     1
  0
DICTIONARY
  5
1A
102
{ACAD_REACTORS
330
C
102
}
330
C
100
AcDbDictionary
281
     1
  3
Layout1
350
1E
  3
Layout2
350
26
  3
Model
350
22
  0
DICTIONARY
  5
17
102
{ACAD_REACTORS
330
C
102
}
330
C
100
AcDbDictionary
281
     1
  3
Standard
350
18
  0
DICTIONARY
  5
19
102
{ACAD_REACTORS
330
C
102
}
330
C
100
AcDbDictionary
281
     1
  0
ACDBDICTIONARYWDFLT
  5
E
102
{ACAD_REACTORS
330
C
102
}
330
C
100
AcDbDictionary
281
     1
  3
Normal
350
F
100
AcDbDictionaryWithDefault
340
F
  0
DICTIONARY
  5
47
102
{ACAD_REACTORS
330
C
102
}
330
C
100
AcDbDictionary
281
     1
  3
A0
350
48
  3
A1
350
49
  3
A2
350
4A
  3
A3
350
4B
  3
A4
350
4C
  3
A5
350
4D
  3
A6
350
4E
  3
A7
350
4F
  3
A8
350
50
  3
A9
350
51
  3
B0
350
52
  3
B1
350
53
  3
B2
350
54
  3
B3
350
55
  3
B4
350
56
  3
B5
350
57
  3
B6
350
58
  3
B7
350
59
  3
B8
350
5A
  3
B9
350
5B
  3
C0
350
5C
  3
C1
350
5D
  3
C2
350
5E
  3
C3
350
5F
  3
C4
350
60
  3
C5
350
61
  3
C6
350
62
  3
C7
350
63
  3
C8
350
64
  3
C9
350
65
  3
D0
350
66
  3
D1
350
67
  3
D2
350
68
  0
XRECORD
  5
9B
102
{ACAD_REACTORS
330
C
102
}
330
C
100
AcDbXrecord
280
     1
  1
DWGPROPS COOKIE
  2

  3

  4

  6

  7

  8
duck7
  9

300
=
301
=
302
=
303
=
304
=
305
=
306
=
307
=
308
=
309
=
 40
0.0
 41
2460131.658900729
 42
2460131.658985995
  1

 90
        0
  0
LAYOUT
  5
1E
102
{ACAD_REACTORS
330
1A
102
}
330
1A
100
AcDbPlotSettings
  1

  2
none_device
  4

  6

 40
0.0
 41
0.0
 42
0.0
 43
0.0
 44
0.0
 45
0.0
 46
0.0
 47
0.0
 48
0.0
 49
0.0
140
0.0
141
0.0
142
1.0
143
1.0
 70
   688
 72
     1
 73
     0
 74
     5
  7

 75
    16
147
1.0
148
0.0
149
0.0
100
AcDbLayout
  1
Layout1
 70
     1
 71
     1
 10
0.0
 20
0.0
 11
420.0
 21
297.0
 12
0.0
 22
0.0
 32
0.0
 14
1.0000000000E+20
 24
1.0000000000E+20
 34
1.0000000000E+20
 15
-1.0000000000E+20
 25
-1.0000000000E+20
 35
-1.0000000000E+20
146
0.0
 13
0.0
 23
0.0
 33
0.0
 16
1.0
 26
0.0
 36
0.0
 17
0.0
 27
1.0
 37
0.0
 76
     0
330
1B
  0
LAYOUT
  5
26
102
{ACAD_REACTORS
330
1A
102
}
330
1A
100
AcDbPlotSettings
  1

  2
none_device
  4

  6

 40
0.0
 41
0.0
 42
0.0
 43
0.0
 44
0.0
 45
0.0
 46
0.0
 47
0.0
 48
0.0
 49
0.0
140
0.0
141
0.0
142
1.0
143
1.0
 70
   688
 72
     1
 73
     0
 74
     5
  7

 75
    16
147
1.0
148
0.0
149
0.0
100
AcDbLayout
  1
Layout2
 70
     1
 71
     2
 10
0.0
 20
0.0
 11
0.0
 21
0.0
 12
0.0
 22
0.0
 32
0.0
 14
0.0
 24
0.0
 34
0.0
 15
0.0
 25
0.0
 35
0.0
146
0.0
 13
0.0
 23
0.0
 33
0.0
 16
1.0
 26
0.0
 36
0.0
 17
0.0
 27
1.0
 37
0.0
 76
     0
330
23
  0
LAYOUT
  5
22
102
{ACAD_REACTORS
330
1A
102
}
330
1A
100
AcDbPlotSettings
  1

  2
none_device
  4
ANSI_A_(11.00_x_8.50_Inches)
  6

 40
6.35
 41
19.05
 42
6.35000508
 43
19.05000254
 44
279.4
 45
215.9
 46
78.8710656298
 47
93.5892140348
 48
0.0
 49
0.0
140
0.0
141
0.0
142
0.0863868248
143
1.0
 70
  1696
 72
     0
 73
     0
 74
     0
  7

 75
     0
147
0.0179189148
148
-1300.4909072572
149
0.0
100
AcDbLayout
  1
Model
 70
     1
 71
     0
 10
0.0
 20
0.0
 11
420.0
 21
297.0
 12
0.0
 22
0.0
 32
0.0
 14
-32.9520329365
 24
-50.8424147557
 34
0.0
 15
82.60867539
 25
46.5682728084
 35
0.0
146
0.0
 13
0.0
 23
0.0
 33
0.0
 16
1.0
 26
0.0
 36
0.0
 17
0.0
 27
1.0
 37
0.0
 76
     0
330
1F
331
29
  0
MLINESTYLE
  5
18
102
{ACAD_REACTORS
330
17
102
}
330
17
100
AcDbMlineStyle
  2
Standard
 70
     0
  3

 62
   256
 51
90.0
 52
90.0
 71
     2
 49
0.5
 62
   256
  6
BYLAYER
 49
-0.5
 62
   256
  6
BYLAYER
  0
ACDBPLACEHOLDER
  5
F
102
{ACAD_REACTORS
330
E
102
}
330
E
  0
SCALE
  5
48
102
{ACAD_REACTORS
330
47
102
}
330
47
100
AcDbScale
 70
     0
300
1:1
140
1.0
141
1.0
290
     1
  0
SCALE
  5
49
102
{ACAD_REACTORS
330
47
102
}
330
47
100
AcDbScale
 70
     0
300
1:2
140
1.0
141
2.0
290
     0
  0
SCALE
  5
4A
102
{ACAD_REACTORS
330
47
102
}
330
47
100
AcDbScale
 70
     0
300
1:4
140
1.0
141
4.0
290
     0
  0
SCALE
  5
4B
102
{ACAD_REACTORS
330
47
102
}
330
47
100
AcDbScale
 70
     0
300
1:5
140
1.0
141
5.0
290
     0
  0
SCALE
  5
4C
102
{ACAD_REACTORS
330
47
102
}
330
47
100
AcDbScale
 70
     0
300
1:8
140
1.0
141
8.0
290
     0
  0
SCALE
  5
4D
102
{ACAD_REACTORS
330
47
102
}
330
47
100
AcDbScale
 70
     0
300
1:10
140
1.0
141
10.0
290
     0
  0
SCALE
  5
4E
102
{ACAD_REACTORS
330
47
102
}
330
47
100
AcDbScale
 70
     0
300
1:16
140
1.0
141
16.0
290
     0
  0
SCALE
  5
4F
102
{ACAD_REACTORS
330
47
102
}
330
47
100
AcDbScale
 70
     0
300
1:20
140
1.0
141
20.0
290
     0
  0
SCALE
  5
50
102
{ACAD_REACTORS
330
47
102
}
330
47
100
AcDbScale
 70
     0
300
1:30
140
1.0
141
30.0
290
     0
  0
SCALE
  5
51
102
{ACAD_REACTORS
330
47
102
}
330
47
100
AcDbScale
 70
     0
300
1:40
140
1.0
141
40.0
290
     0
  0
SCALE
  5
52
102
{ACAD_REACTORS
330
47
102
}
330
47
100
AcDbScale
 70
     0
300
1:50
140
1.0
141
50.0
290
     0
  0
SCALE
  5
53
102
{ACAD_REACTORS
330
47
102
}
330
47
100
AcDbScale
 70
     0
300
1:100
140
1.0
141
100.0
290
     0
  0
SCALE
  5
54
102
{ACAD_REACTORS
330
47
102
}
330
47
100
AcDbScale
 70
     0
300
2:1
140
2.0
141
1.0
290
     0
  0
SCALE
  5
55
102
{ACAD_REACTORS
330
47
102
}
330
47
100
AcDbScale
 70
     0
300
4:1
140
4.0
141
1.0
290
     0
  0
SCALE
  5
56
102
{ACAD_REACTORS
330
47
102
}
330
47
100
AcDbScale
 70
     0
300
8:1
140
8.0
141
1.0
290
     0
  0
SCALE
  5
57
102
{ACAD_REACTORS
330
47
102
}
330
47
100
AcDbScale
 70
     0
300
10:1
140
10.0
141
1.0
290
     0
  0
SCALE
  5
58
102
{ACAD_REACTORS
330
47
102
}
330
47
100
AcDbScale
 70
     0
300
100:1
140
100.0
141
1.0
290
     0
  0
SCALE
  5
59
102
{ACAD_REACTORS
330
47
102
}
330
47
100
AcDbScale
 70
     0
300
1/128" = 1'-0"
140
0.0078125
141
12.0
290
     0
  0
SCALE
  5
5A
102
{ACAD_REACTORS
330
47
102
}
330
47
100
AcDbScale
 70
     0
300
1/64" = 1'-0"
140
0.015625
141
12.0
290
     0
  0
SCALE
  5
5B
102
{ACAD_REACTORS
330
47
102
}
330
47
100
AcDbScale
 70
     0
300
1/32" = 1'-0"
140
0.03125
141
12.0
290
     0
  0
SCALE
  5
5C
102
{ACAD_REACTORS
330
47
102
}
330
47
100
AcDbScale
 70
     0
300
1/16" = 1'-0"
140
0.0625
141
12.0
290
     0
  0
SCALE
  5
5D
102
{ACAD_REACTORS
330
47
102
}
330
47
100
AcDbScale
 70
     0
300
3/32" = 1'-0"
140
0.09375
141
12.0
290
     0
  0
SCALE
  5
5E
102
{ACAD_REACTORS
330
47
102
}
330
47
100
AcDbScale
 70
     0
300
1/8" = 1'-0"
140
0.125
141
12.0
290
     0
  0
SCALE
  5
5F
102
{ACAD_REACTORS
330
47
102
}
330
47
100
AcDbScale
 70
     0
300
3/16" = 1'-0"
140
0.1875
141
12.0
290
     0
  0
SCALE
  5
60
102
{ACAD_REACTORS
330
47
102
}
330
47
100
AcDbScale
 70
     0
300
1/4" = 1'-0"
140
0.25
141
12.0
290
     0
  0
SCALE
  5
61
102
{ACAD_REACTORS
330
47
102
}
330
47
100
AcDbScale
 70
     0
300
3/8" = 1'-0"
140
0.375
141
12.0
290
     0
  0
SCALE
  5
62
102
{ACAD_REACTORS
330
47
102
}
330
47
100
AcDbScale
 70
     0
300
1/2" = 1'-0"
140
0.5
141
12.0
290
     0
  0
SCALE
  5
63
102
{ACAD_REACTORS
330
47
102
}
330
47
100
AcDbScale
 70
     0
300
3/4" = 1'-0"
140
0.75
141
12.0
290
     0
  0
SCALE
  5
64
102
{ACAD_REACTORS
330
47
102
}
330
47
100
AcDbScale
 70
     0
300
1" = 1'-0"
140
1.0
141
12.0
290
     0
  0
SCALE
  5
65
102
{ACAD_REACTORS
330
47
102
}
330
47
100
AcDbScale
 70
     0
300
1-1/2" = 1'-0"
140
1.5
141
12.0
290
     0
  0
SCALE
  5
66
102
{ACAD_REACTORS
330
47
102
}
330
47
100
AcDbScale
 70
     0
300
3" = 1'-0"
140
3.0
141
12.0
290
     0
  0
SCALE
  5
67
102
{ACAD_REACTORS
330
47
102
}
330
47
100
AcDbScale
 70
     0
300
6" = 1'-0"
140
6.0
141
12.0
290
     0
  0
SCALE
  5
68
102
{ACAD_REACTORS
330
47
102
}
330
47
100
AcDbScale
 70
     0
300
1'-0" = 1'-0"
140
12.0
141
12.0
290
     0
  0
ENDSEC
  0
EOF
